<?xml version="1.0" encoding="UTF-8" standalone="no"?>
<svg
>
<defs xmlns="http://www.w3.org/2000/svg" xmlns:dc="http://purl.org/dc/elements/1.1/" xmlns:cc="http://creativecommons.org/ns#" xmlns:rdf="http://www.w3.org/1999/02/22-rdf-syntax-ns#" xmlns:svg="http://www.w3.org/2000/svg" xmlns:sodipodi="http://sodipodi.sourceforge.net/DTD/sodipodi-0.dtd" xmlns:inkscape="http://www.inkscape.org/namespaces/inkscape" id="defs8377"/>
  
<g xmlns="http://www.w3.org/2000/svg" xmlns:inkscape="http://www.inkscape.org/namespaces/inkscape" xmlns:dc="http://purl.org/dc/elements/1.1/" xmlns:cc="http://creativecommons.org/ns#" xmlns:rdf="http://www.w3.org/1999/02/22-rdf-syntax-ns#" xmlns:svg="http://www.w3.org/2000/svg" xmlns:sodipodi="http://sodipodi.sourceforge.net/DTD/sodipodi-0.dtd" style="stroke:#000000;stroke-width:0.64999998;stroke-miterlimit:4;stroke-dasharray:none;stroke-opacity:1" inkscape:label="0" id="g49923">
      <path style="opacity:1;vector-effect:none;fill:none;fill-opacity:1;fill-rule:evenodd;stroke:#000000;stroke-width:0.5;stroke-linecap:butt;stroke-linejoin:miter;stroke-miterlimit:4;stroke-dasharray:0.5, 1;stroke-dashoffset:0;stroke-opacity:1" d="m 33.148793,295.75523 c 0.213436,12.8498 11.93067,10.80782 10.925145,0.025" id="path50765" embroider_running_stitch_length_mm="1.50" inkscape:connector-curvature="0"/>
      <path d="m 42.792718,295.5471 c 0,-2.66934 -0.342334,-4.667 -1.027,-5.993 -0.676,-1.33467 -1.694333,-2.002 -3.055,-2.002 -1.352,0 -2.370334,0.66733 -3.055,2.002 -0.676,1.326 -1.014,3.32366 -1.014,5.993 0,2.66066 0.338,4.65833 1.014,5.99299 0.684666,1.32601 1.703,1.98901 3.055,1.98901 1.360667,0 2.379,-0.663 3.055,-1.98901 0.684666,-1.33466 1.027,-3.33233 1.027,-5.99299 m 2.626,0 c 0,-3.276 -0.576334,-5.772 -1.729001,-7.488 -1.143999,-1.72467 -2.803666,-2.587 -4.978999,-2.587 -2.175334,0 -3.839334,0.86233 -4.992,2.587 -1.144,1.716 -1.716,4.212 -1.716,7.488 0,3.26733 0.572,5.76333 1.716,7.488 1.152666,1.716 2.816666,2.574 4.992,2.574 2.175333,0 3.835,-0.858 4.978999,-2.574 1.152667,-1.72467 1.729001,-4.22067 1.729001,-7.488" style="font-style:normal;font-variant:normal;font-weight:normal;font-stretch:normal;font-size:106.66666412px;line-height:100%;font-family:sans-serif;-inkscape-font-specification:sans-serif;font-variant-ligatures:normal;font-variant-position:normal;font-variant-caps:normal;font-variant-numeric:normal;font-variant-alternates:normal;font-feature-settings:normal;text-indent:0;text-align:start;text-decoration:none;text-decoration-line:none;text-decoration-style:solid;text-decoration-color:#000000;letter-spacing:50px;word-spacing:0px;text-transform:none;writing-mode:lr-tb;direction:ltr;text-orientation:mixed;dominant-baseline:auto;baseline-shift:baseline;text-anchor:start;white-space:normal;shape-padding:0;fill:none;fill-opacity:1;stroke:#000000;stroke-width:0.5;stroke-linecap:butt;stroke-linejoin:miter;stroke-miterlimit:4;stroke-dasharray:none;stroke-dashoffset:0;stroke-opacity:1" id="path49864" embroider_zigzag_spacing_mm="0.4" embroider_satin_column="True" embroider_pull_compensation_mm="0.2" embroider_center_walk_underlay="True" embroider_center_walk_underlay_stitch_length_mm="1.5" embroider_contour_underlay="False" embroider_zigzag_underlay="False" inkscape:connector-curvature="0"/>
    </g>
    
</svg>
