<?xml version="1.0" encoding="UTF-8" standalone="no"?>
<svg
>
<defs xmlns="http://www.w3.org/2000/svg" xmlns:dc="http://purl.org/dc/elements/1.1/" xmlns:cc="http://creativecommons.org/ns#" xmlns:rdf="http://www.w3.org/1999/02/22-rdf-syntax-ns#" xmlns:svg="http://www.w3.org/2000/svg" xmlns:sodipodi="http://sodipodi.sourceforge.net/DTD/sodipodi-0.dtd" xmlns:inkscape="http://www.inkscape.org/namespaces/inkscape" id="defs8377"/>
  
<g xmlns="http://www.w3.org/2000/svg" xmlns:inkscape="http://www.inkscape.org/namespaces/inkscape" xmlns:dc="http://purl.org/dc/elements/1.1/" xmlns:cc="http://creativecommons.org/ns#" xmlns:rdf="http://www.w3.org/1999/02/22-rdf-syntax-ns#" xmlns:svg="http://www.w3.org/2000/svg" xmlns:sodipodi="http://sodipodi.sourceforge.net/DTD/sodipodi-0.dtd" style="stroke:#000000;stroke-width:0.64999998;stroke-miterlimit:4;stroke-dasharray:none;stroke-opacity:1" inkscape:label="0" id="g49923">
      <path embroider_running_stitch_length_mm="1.50" sodipodi:nodetypes="cc" inkscape:connector-curvature="0" id="path50765" d="m 47.678572,748.34441 c 0.555825,33.46302 31.069453,28.14536 28.450899,0.0651" style="opacity:1;vector-effect:none;fill:none;fill-opacity:1;fill-rule:evenodd;stroke:#000000;stroke-width:0.64999998;stroke-linecap:butt;stroke-linejoin:miter;stroke-miterlimit:4;stroke-dasharray:0.65, 1.3;stroke-dashoffset:0;stroke-opacity:1"/>
      <path embroider_zigzag_underlay="False" embroider_contour_underlay="False" embroider_center_walk_underlay_stitch_length_mm="1.5" embroider_center_walk_underlay="True" embroider_pull_compensation_mm="0.2" embroider_satin_column="True" embroider_zigzag_spacing_mm="0.4" sodipodi:nodetypes="ccscscsccccscscscc" inkscape:connector-curvature="0" id="path49864" style="font-style:normal;font-variant:normal;font-weight:normal;font-stretch:normal;font-size:106.66666412px;line-height:100%;font-family:sans-serif;-inkscape-font-specification:sans-serif;font-variant-ligatures:normal;font-variant-position:normal;font-variant-caps:normal;font-variant-numeric:normal;font-variant-alternates:normal;font-feature-settings:normal;text-indent:0;text-align:start;text-decoration:none;text-decoration-line:none;text-decoration-style:solid;text-decoration-color:#000000;letter-spacing:50px;word-spacing:0px;text-transform:none;writing-mode:lr-tb;direction:ltr;text-orientation:mixed;dominant-baseline:auto;baseline-shift:baseline;text-anchor:start;white-space:normal;shape-padding:0;fill:none;fill-opacity:1;stroke:#000000;stroke-width:0.64999998;stroke-linecap:butt;stroke-linejoin:miter;stroke-miterlimit:4;stroke-dasharray:none;stroke-dashoffset:0;stroke-opacity:1" d="m 72.79296,747.80238 c 0,-6.95139 -0.891493,-12.15364 -2.674479,-15.60677 -1.760417,-3.47569 -4.412326,-5.21354 -7.955729,-5.21354 -3.520833,0 -6.172743,1.73785 -7.955729,5.21354 -1.760417,3.45313 -2.640625,8.65538 -2.640625,15.60677 0,6.92882 0.880208,12.13108 2.640625,15.60677 1.782986,3.45313 4.434896,5.17969 7.955729,5.17969 3.543403,0 6.195312,-1.72656 7.955729,-5.17969 1.782986,-3.47569 2.674479,-8.67795 2.674479,-15.60677 m 6.838542,0 c 0,-8.53125 -1.500868,-15.03125 -4.502605,-19.5 -2.979166,-4.49131 -7.301214,-6.73697 -12.966145,-6.73697 -5.664931,0 -9.998264,2.24566 -13,6.73697 -2.979167,4.46875 -4.46875,10.96875 -4.46875,19.5 0,8.50868 1.489583,15.00868 4.46875,19.5 3.001736,4.46875 7.335069,6.70313 13,6.70313 5.664931,0 9.986979,-2.23438 12.966145,-6.70313 3.001737,-4.49132 4.502605,-10.99132 4.502605,-19.5"/>
    </g>
    
</svg>
