<?xml version="1.0" encoding="UTF-8" standalone="no"?>
<svg
>
<defs xmlns="http://www.w3.org/2000/svg" xmlns:dc="http://purl.org/dc/elements/1.1/" xmlns:cc="http://creativecommons.org/ns#" xmlns:rdf="http://www.w3.org/1999/02/22-rdf-syntax-ns#" xmlns:svg="http://www.w3.org/2000/svg" xmlns:sodipodi="http://sodipodi.sourceforge.net/DTD/sodipodi-0.dtd" xmlns:inkscape="http://www.inkscape.org/namespaces/inkscape" id="defs8377"/>
  
<g xmlns="http://www.w3.org/2000/svg" xmlns:inkscape="http://www.inkscape.org/namespaces/inkscape" xmlns:dc="http://purl.org/dc/elements/1.1/" xmlns:cc="http://creativecommons.org/ns#" xmlns:rdf="http://www.w3.org/1999/02/22-rdf-syntax-ns#" xmlns:svg="http://www.w3.org/2000/svg" xmlns:sodipodi="http://sodipodi.sourceforge.net/DTD/sodipodi-0.dtd" style="stroke:#000000;stroke-width:0.64999998;stroke-miterlimit:4;stroke-dasharray:none;stroke-opacity:1" inkscape:label="3" id="g49932">
      <path embroider_zigzag_underlay="False" embroider_contour_underlay="False" embroider_center_walk_underlay_stitch_length_mm="1.5" embroider_center_walk_underlay="True" embroider_pull_compensation_mm="0.2" embroider_satin_column="True" embroider_zigzag_spacing_mm="0.4" d="m 121.15672,286.3041 c 0.99666,-0.27734 1.92833,-0.48534 2.795,-0.624 0.87533,-0.13867 1.69866,-0.208 2.47,-0.208 1.99333,0 3.57067,0.455 4.732,1.365 1.16133,0.90133 1.742,2.12333 1.742,3.66599 0,1.07467 -0.30767,1.98467 -0.923,2.73001 -0.53198,0.63687 -1.25828,1.10532 -2.1789,1.40536 m -8.6371,-5.99436 c 0.988,-0.32934 1.89366,-0.57201 2.717,-0.72801 0.82333,-0.156 1.59466,-0.23399 2.314,-0.23399 1.31733,0 2.63557,0.063 3.33757,0.60028 0.71066,0.52867 1.13457,1.29133 1.13457,2.288 0,0.97067 -0.71948,1.92171 -1.40414,2.44172 -0.42984,0.32101 -0.97923,0.54126 -1.64817,0.66074" style="font-style:normal;font-variant:normal;font-weight:normal;font-stretch:normal;font-size:106.66666412px;line-height:100%;font-family:sans-serif;-inkscape-font-specification:sans-serif;font-variant-ligatures:normal;font-variant-position:normal;font-variant-caps:normal;font-variant-numeric:normal;font-variant-alternates:normal;font-feature-settings:normal;text-indent:0;text-align:start;text-decoration:none;text-decoration-line:none;text-decoration-style:solid;text-decoration-color:#000000;letter-spacing:50px;word-spacing:0px;text-transform:none;writing-mode:lr-tb;direction:ltr;text-orientation:mixed;dominant-baseline:auto;baseline-shift:baseline;text-anchor:start;white-space:normal;shape-padding:0;fill:none;fill-opacity:1;stroke:#000000;stroke-width:0.5;stroke-linecap:butt;stroke-linejoin:miter;stroke-miterlimit:4;stroke-dasharray:none;stroke-dashoffset:0;stroke-opacity:1" id="path49870" inkscape:connector-curvature="0"/>
      <path id="path55634" d="m 127.94879,294.52095 c 0,0 -3.90857,0.41143 -3.90857,0.41143" style="opacity:1;vector-effect:none;fill:none;fill-opacity:1;fill-rule:evenodd;stroke:#000000;stroke-width:0.5;stroke-linecap:butt;stroke-linejoin:miter;stroke-miterlimit:4;stroke-dasharray:0.5, 1;stroke-dashoffset:0;stroke-opacity:1" embroider_running_stitch_length_mm="1.50" inkscape:connector-curvature="0"/>
      <path embroider_zigzag_underlay="False" embroider_contour_underlay="False" embroider_center_walk_underlay_stitch_length_mm="1.5" embroider_center_walk_underlay="True" embroider_pull_compensation_mm="0.2" embroider_satin_column="True" embroider_zigzag_spacing_mm="0.4" d="m 123.92572,293.77909 c 0,0 2.366,0 2.366,0 0.29276,0 0.56993,-0.0131 0.8315,-0.0394 0,0 2.2235,1.02743 2.2235,1.02743 1.25666,0.26866 2.23599,0.82766 2.938,1.677 0.71067,0.84933 1.066,1.89799 1.066,3.14599 0,1.91534 -0.65867,3.39734 -1.976,4.446 -1.31733,1.04867 -3.18933,1.57301 -5.616,1.57301 -0.81467,0 -1.65533,-0.0823 -2.522,-0.24701 -0.858,-0.156 -1.74634,-0.39433 -2.665,-0.71499 m 3.354,-8.71 c 0,0 2.262,0 2.262,0 1.43,0 2.54366,0.325 3.341,0.975 0.806,0.64133 1.689,1.43113 1.689,2.57513 0,1.23934 -0.53619,2.28686 -1.40286,2.93686 -0.858,0.65 -2.48748,0.97501 -4.13414,0.97501 -0.94467,0 -1.85034,-0.10834 -2.717,-0.325 -0.86667,-0.21667 -1.664,-0.53734 -2.392,-0.96201 m 10.1885,-2.20828 c 0,0 3.05143,0 3.05143,0" style="font-style:normal;font-variant:normal;font-weight:normal;font-stretch:normal;font-size:106.66666412px;line-height:100%;font-family:sans-serif;-inkscape-font-specification:sans-serif;font-variant-ligatures:normal;font-variant-position:normal;font-variant-caps:normal;font-variant-numeric:normal;font-variant-alternates:normal;font-feature-settings:normal;text-indent:0;text-align:start;text-decoration:none;text-decoration-line:none;text-decoration-style:solid;text-decoration-color:#000000;letter-spacing:50px;word-spacing:0px;text-transform:none;writing-mode:lr-tb;direction:ltr;text-orientation:mixed;dominant-baseline:auto;baseline-shift:baseline;text-anchor:start;white-space:normal;shape-padding:0;fill:none;fill-opacity:1;stroke:#000000;stroke-width:0.5;stroke-linecap:butt;stroke-linejoin:miter;stroke-miterlimit:4;stroke-dasharray:none;stroke-dashoffset:0;stroke-opacity:1" id="path55631" inkscape:connector-curvature="0"/>
    </g>
    
</svg>
