<?xml version="1.0" encoding="UTF-8" standalone="no"?>
<svg
>
<defs xmlns="http://www.w3.org/2000/svg" xmlns:dc="http://purl.org/dc/elements/1.1/" xmlns:cc="http://creativecommons.org/ns#" xmlns:rdf="http://www.w3.org/1999/02/22-rdf-syntax-ns#" xmlns:svg="http://www.w3.org/2000/svg" xmlns:sodipodi="http://sodipodi.sourceforge.net/DTD/sodipodi-0.dtd" xmlns:inkscape="http://www.inkscape.org/namespaces/inkscape" id="defs8377"/>
  
<g xmlns="http://www.w3.org/2000/svg" xmlns:inkscape="http://www.inkscape.org/namespaces/inkscape" xmlns:dc="http://purl.org/dc/elements/1.1/" xmlns:cc="http://creativecommons.org/ns#" xmlns:rdf="http://www.w3.org/1999/02/22-rdf-syntax-ns#" xmlns:svg="http://www.w3.org/2000/svg" xmlns:sodipodi="http://sodipodi.sourceforge.net/DTD/sodipodi-0.dtd" style="stroke:#000000;stroke-width:0.64999998;stroke-miterlimit:4;stroke-dasharray:none;stroke-opacity:1" inkscape:label="3" id="g49932">
      <path id="path49870" style="font-style:normal;font-variant:normal;font-weight:normal;font-stretch:normal;font-size:106.66666412px;line-height:100%;font-family:sans-serif;-inkscape-font-specification:sans-serif;font-variant-ligatures:normal;font-variant-position:normal;font-variant-caps:normal;font-variant-numeric:normal;font-variant-alternates:normal;font-feature-settings:normal;text-indent:0;text-align:start;text-decoration:none;text-decoration-line:none;text-decoration-style:solid;text-decoration-color:#000000;letter-spacing:50px;word-spacing:0px;text-transform:none;writing-mode:lr-tb;direction:ltr;text-orientation:mixed;dominant-baseline:auto;baseline-shift:baseline;text-anchor:start;white-space:normal;shape-padding:0;fill:none;fill-opacity:1;stroke:#000000;stroke-width:0.64999998;stroke-linecap:butt;stroke-linejoin:miter;stroke-miterlimit:4;stroke-dasharray:none;stroke-dashoffset:0;stroke-opacity:1" d="m 276.86588,723.73207 c 2.59548,-0.72223 5.0217,-1.26389 7.27865,-1.625 2.27951,-0.36111 4.4236,-0.54166 6.43228,-0.54166 5.19098,0 9.29862,1.18489 12.32292,3.55468 3.02431,2.34722 4.53646,5.52951 4.53646,9.54687 0,2.79861 -0.80122,5.16841 -2.40365,7.10938 -1.38535,1.65852 -3.27675,2.87844 -5.67421,3.65979 m -22.49245,-15.61031 c 2.57291,-0.85764 4.93142,-1.48959 7.07552,-1.89584 2.14409,-0.40625 4.15277,-0.60937 6.02604,-0.60937 3.43056,0 6.86347,0.16394 8.69159,1.56325 1.85069,1.37673 2.95461,3.36284 2.95461,5.95833 0,2.52778 -1.87363,5.00446 -3.65661,6.35863 -1.11937,0.83597 -2.55007,1.40954 -4.29211,1.72069" inkscape:connector-curvature="0" sodipodi:nodetypes="ccscscccsscscc" embroider_zigzag_spacing_mm="0.4" embroider_satin_column="True" embroider_pull_compensation_mm="0.2" embroider_center_walk_underlay="True" embroider_center_walk_underlay_stitch_length_mm="1.5" embroider_contour_underlay="False" embroider_zigzag_underlay="False"/>
      <path embroider_running_stitch_length_mm="1.50" style="opacity:1;vector-effect:none;fill:none;fill-opacity:1;fill-rule:evenodd;stroke:#000000;stroke-width:0.64999998;stroke-linecap:butt;stroke-linejoin:miter;stroke-miterlimit:4;stroke-dasharray:0.65, 1.3;stroke-dashoffset:0;stroke-opacity:1" d="M 294.55357,745.13013 284.375,746.20155" id="path55634" inkscape:connector-curvature="0"/>
      <path sodipodi:nodetypes="cscccscscccscscscccc" id="path55631" style="font-style:normal;font-variant:normal;font-weight:normal;font-stretch:normal;font-size:106.66666412px;line-height:100%;font-family:sans-serif;-inkscape-font-specification:sans-serif;font-variant-ligatures:normal;font-variant-position:normal;font-variant-caps:normal;font-variant-numeric:normal;font-variant-alternates:normal;font-feature-settings:normal;text-indent:0;text-align:start;text-decoration:none;text-decoration-line:none;text-decoration-style:solid;text-decoration-color:#000000;letter-spacing:50px;word-spacing:0px;text-transform:none;writing-mode:lr-tb;direction:ltr;text-orientation:mixed;dominant-baseline:auto;baseline-shift:baseline;text-anchor:start;white-space:normal;shape-padding:0;fill:none;fill-opacity:1;stroke:#000000;stroke-width:0.64999998;stroke-linecap:butt;stroke-linejoin:miter;stroke-miterlimit:4;stroke-dasharray:none;stroke-dashoffset:0;stroke-opacity:1" d="m 284.07681,743.19821 h 6.16147 c 0.76239,0 1.48418,-0.0342 2.16537,-0.10266 l 5.79035,2.67558 c 3.27257,0.69965 5.82291,2.15538 7.65104,4.36719 1.8507,2.2118 2.77605,4.9427 2.77605,8.1927 0,4.98785 -1.71528,8.84723 -5.14584,11.57813 -3.43055,2.73091 -8.30555,4.09636 -14.625,4.09636 -2.12153,0 -4.31076,-0.21441 -6.56771,-0.64324 -2.23437,-0.40625 -4.54774,-1.0269 -6.9401,-1.86197 m 8.73437,-22.68229 h 5.89063 c 3.72396,0 6.62413,0.84635 8.70052,2.53906 2.09896,1.67013 4.39844,3.72692 4.39844,6.70609 0,3.22743 -1.39633,5.95536 -3.65328,7.64807 -2.23437,1.69271 -6.4778,2.53907 -10.76599,2.53907 -2.46007,0 -4.81858,-0.28212 -7.07553,-0.84635 -2.25694,-0.56424 -4.33333,-1.39931 -6.22916,-2.50522 m 26.53256,-5.75075 h 7.94643" inkscape:connector-curvature="0" embroider_zigzag_spacing_mm="0.4" embroider_satin_column="True" embroider_pull_compensation_mm="0.2" embroider_center_walk_underlay="True" embroider_center_walk_underlay_stitch_length_mm="1.5" embroider_contour_underlay="False" embroider_zigzag_underlay="False"/>
    </g>
    
</svg>
