<?xml version="1.0" encoding="UTF-8" standalone="no"?>
<svg
>
<defs xmlns="http://www.w3.org/2000/svg" xmlns:dc="http://purl.org/dc/elements/1.1/" xmlns:cc="http://creativecommons.org/ns#" xmlns:rdf="http://www.w3.org/1999/02/22-rdf-syntax-ns#" xmlns:svg="http://www.w3.org/2000/svg" xmlns:sodipodi="http://sodipodi.sourceforge.net/DTD/sodipodi-0.dtd" xmlns:inkscape="http://www.inkscape.org/namespaces/inkscape" id="defs8377"/>
  
<g xmlns="http://www.w3.org/2000/svg" xmlns:inkscape="http://www.inkscape.org/namespaces/inkscape" xmlns:dc="http://purl.org/dc/elements/1.1/" xmlns:cc="http://creativecommons.org/ns#" xmlns:rdf="http://www.w3.org/1999/02/22-rdf-syntax-ns#" xmlns:svg="http://www.w3.org/2000/svg" xmlns:sodipodi="http://sodipodi.sourceforge.net/DTD/sodipodi-0.dtd" style="stroke:#000000;stroke-width:0.64999998;stroke-miterlimit:4;stroke-dasharray:none;stroke-opacity:1" inkscape:label="6" id="g49941">
      <path embroider_zigzag_underlay="False" embroider_contour_underlay="False" embroider_center_walk_underlay_stitch_length_mm="1.5" embroider_center_walk_underlay="True" embroider_pull_compensation_mm="0.2" embroider_satin_column="True" embroider_zigzag_spacing_mm="0.4" sodipodi:nodetypes="ccscscsccccscscscc" inkscape:connector-curvature="0" d="m 505.39472,755.91054 c 0.69956,4.65672 2.0606,8.454 4.08313,11.39184 3.09202,4.46875 7.56077,6.70313 13.40625,6.70313 5.1007,0 9.18577,-1.56858 12.25521,-4.70574 3.06945,-3.13715 4.60417,-7.30121 4.60417,-12.49218 0,-5.30382 -1.4783,-9.49045 -4.43489,-12.55989 -2.93403,-3.09202 -6.94011,-4.63803 -12.01824,-4.63803 -2.41493,0 -4.62673,0.53038 -6.63541,1.59115 -2.00868,1.03819 -3.42628,2.03398 -4.75787,3.99752 m -0.57319,10.33644 c 0.058,3.89634 2.46474,7.78409 4.24772,9.90562 1.80556,2.09896 4.24306,3.14844 7.3125,3.14844 3.06945,0 5.49567,-1.04948 7.27865,-3.14844 1.80556,-2.12153 2.70834,-4.99913 2.70834,-8.63281 0,-3.65625 -0.90278,-6.53386 -2.70834,-8.63282 -1.78298,-2.09895 -4.2092,-3.14843 -7.27865,-3.14843 -3.06944,0 -5.63321,0.92321 -7.43877,3.02216 -0.88991,1.04762 -2.283,2.44783 -2.94932,3.66282" style="font-style:normal;font-variant:normal;font-weight:normal;font-stretch:normal;font-size:106.66666412px;line-height:100%;font-family:sans-serif;-inkscape-font-specification:sans-serif;font-variant-ligatures:normal;font-variant-position:normal;font-variant-caps:normal;font-variant-numeric:normal;font-variant-alternates:normal;font-feature-settings:normal;text-indent:0;text-align:start;text-decoration:none;text-decoration-line:none;text-decoration-style:solid;text-decoration-color:#000000;letter-spacing:50px;word-spacing:0px;text-transform:none;writing-mode:lr-tb;direction:ltr;text-orientation:mixed;dominant-baseline:auto;baseline-shift:baseline;text-anchor:start;white-space:normal;shape-padding:0;fill:none;fill-opacity:1;stroke:#000000;stroke-width:0.64999998;stroke-linecap:butt;stroke-linejoin:miter;stroke-miterlimit:4;stroke-dasharray:none;stroke-dashoffset:0;stroke-opacity:1" id="path49876"/>
      <path embroider_zigzag_underlay="False" embroider_contour_underlay="False" embroider_center_walk_underlay_stitch_length_mm="1.5" embroider_center_walk_underlay="True" embroider_pull_compensation_mm="0.2" embroider_satin_column="True" embroider_zigzag_spacing_mm="0.4" sodipodi:nodetypes="cccscccscscc" inkscape:connector-curvature="0" d="m 511.19761,755.53478 c -0.039,-0.60925 -0.14316,-10.51962 -0.11766,-10.85635 0.42733,-5.64953 2.39059,-9.91203 4.62708,-12.78751 2.39235,-3.04687 5.84548,-4.57031 10.35937,-4.57031 1.71527,0 3.44184,0.21441 5.17969,0.64323 1.76041,0.42882 3.49826,1.04948 5.21354,1.86198 m -31.06491,26.08472 c -0.36992,-2.46241 -0.55488,-5.16513 -0.55488,-8.10816 0,-7.98958 1.89583,-14.35416 5.6875,-19.09375 3.79167,-4.76215 8.88108,-7.14322 15.26823,-7.14322 1.71527,0 3.44183,0.16927 5.17968,0.50781 1.76042,0.33854 3.58855,0.84635 5.48438,1.52344" style="font-style:normal;font-variant:normal;font-weight:normal;font-stretch:normal;font-size:106.66666412px;line-height:100%;font-family:sans-serif;-inkscape-font-specification:sans-serif;font-variant-ligatures:normal;font-variant-position:normal;font-variant-caps:normal;font-variant-numeric:normal;font-variant-alternates:normal;font-feature-settings:normal;text-indent:0;text-align:start;text-decoration:none;text-decoration-line:none;text-decoration-style:solid;text-decoration-color:#000000;letter-spacing:50px;word-spacing:0px;text-transform:none;writing-mode:lr-tb;direction:ltr;text-orientation:mixed;dominant-baseline:auto;baseline-shift:baseline;text-anchor:start;white-space:normal;shape-padding:0;fill:none;fill-opacity:1;stroke:#000000;stroke-width:0.64999998;stroke-linecap:butt;stroke-linejoin:miter;stroke-miterlimit:4;stroke-dasharray:none;stroke-dashoffset:0;stroke-opacity:1" id="path77434"/>
    </g>
    
</svg>
