<?xml version="1.0" encoding="UTF-8" standalone="no"?>
<svg
>
<defs xmlns="http://www.w3.org/2000/svg" xmlns:dc="http://purl.org/dc/elements/1.1/" xmlns:cc="http://creativecommons.org/ns#" xmlns:rdf="http://www.w3.org/1999/02/22-rdf-syntax-ns#" xmlns:svg="http://www.w3.org/2000/svg" xmlns:sodipodi="http://sodipodi.sourceforge.net/DTD/sodipodi-0.dtd" xmlns:inkscape="http://www.inkscape.org/namespaces/inkscape" id="defs8377"/>
  
<g xmlns="http://www.w3.org/2000/svg" xmlns:inkscape="http://www.inkscape.org/namespaces/inkscape" xmlns:dc="http://purl.org/dc/elements/1.1/" xmlns:cc="http://creativecommons.org/ns#" xmlns:rdf="http://www.w3.org/1999/02/22-rdf-syntax-ns#" xmlns:svg="http://www.w3.org/2000/svg" xmlns:sodipodi="http://sodipodi.sourceforge.net/DTD/sodipodi-0.dtd" style="stroke:#000000;stroke-width:0.64999998;stroke-miterlimit:4;stroke-dasharray:none;stroke-opacity:1" inkscape:label="6" id="g49941">
      <path id="path49876" style="font-style:normal;font-variant:normal;font-weight:normal;font-stretch:normal;font-size:106.66666412px;line-height:100%;font-family:sans-serif;-inkscape-font-specification:sans-serif;font-variant-ligatures:normal;font-variant-position:normal;font-variant-caps:normal;font-variant-numeric:normal;font-variant-alternates:normal;font-feature-settings:normal;text-indent:0;text-align:start;text-decoration:none;text-decoration-line:none;text-decoration-style:solid;text-decoration-color:#000000;letter-spacing:50px;word-spacing:0px;text-transform:none;writing-mode:lr-tb;direction:ltr;text-orientation:mixed;dominant-baseline:auto;baseline-shift:baseline;text-anchor:start;white-space:normal;shape-padding:0;fill:none;fill-opacity:1;stroke:#000000;stroke-width:0.5;stroke-linecap:butt;stroke-linejoin:miter;stroke-miterlimit:4;stroke-dasharray:none;stroke-dashoffset:0;stroke-opacity:1" d="m 208.91179,298.66063 c 0.26863,1.78818 0.79127,3.24633 1.56793,4.37447 1.18733,1.716 2.90333,2.574 5.148,2.574 1.95866,0 3.52733,-0.60234 4.706,-1.80701 1.17866,-1.20466 1.768,-2.80366 1.768,-4.79699 0,-2.03667 -0.56767,-3.64434 -1.703,-4.823 -1.12667,-1.18734 -2.665,-1.78101 -4.615,-1.78101 -0.92734,0 -1.77667,0.20367 -2.548,0.61101 -0.77134,0.39866 -1.31569,0.78104 -1.82702,1.53504 m -0.22011,3.9692 c 0.0223,1.49619 0.94646,2.98909 1.63113,3.80375 0.69333,0.80601 1.62933,1.20901 2.808,1.20901 1.17866,0 2.11033,-0.403 2.795,-1.20901 0.69333,-0.81466 1.04,-1.91966 1.04,-3.31499 0,-1.404 -0.34667,-2.50901 -1.04,-3.31501 -0.68467,-0.80599 -1.61634,-1.20899 -2.795,-1.20899 -1.17867,0 -2.16316,0.35451 -2.85649,1.16051 -0.34173,0.40228 -0.87667,0.93996 -1.13254,1.40652" embroider_zigzag_spacing_mm="0.4" embroider_satin_column="True" embroider_pull_compensation_mm="0.2" embroider_center_walk_underlay="True" embroider_center_walk_underlay_stitch_length_mm="1.5" embroider_contour_underlay="False" embroider_zigzag_underlay="False" inkscape:connector-curvature="0"/>
      <path id="path77434" style="font-style:normal;font-variant:normal;font-weight:normal;font-stretch:normal;font-size:106.66666412px;line-height:100%;font-family:sans-serif;-inkscape-font-specification:sans-serif;font-variant-ligatures:normal;font-variant-position:normal;font-variant-caps:normal;font-variant-numeric:normal;font-variant-alternates:normal;font-feature-settings:normal;text-indent:0;text-align:start;text-decoration:none;text-decoration-line:none;text-decoration-style:solid;text-decoration-color:#000000;letter-spacing:50px;word-spacing:0px;text-transform:none;writing-mode:lr-tb;direction:ltr;text-orientation:mixed;dominant-baseline:auto;baseline-shift:baseline;text-anchor:start;white-space:normal;shape-padding:0;fill:none;fill-opacity:1;stroke:#000000;stroke-width:0.5;stroke-linecap:butt;stroke-linejoin:miter;stroke-miterlimit:4;stroke-dasharray:none;stroke-dashoffset:0;stroke-opacity:1" d="m 211.1401,298.51634 c -0.015,-0.23396 -0.055,-4.03954 -0.0452,-4.16884 0.1641,-2.16942 0.91799,-3.80622 1.7768,-4.91041 0.91866,-1.16999 2.24466,-1.75499 3.978,-1.75499 0.65866,0 1.32167,0.0823 1.989,0.247 0.676,0.16466 1.34333,0.403 2.002,0.715 m -11.92893,10.01653 c -0.14205,-0.94557 -0.21307,-1.98341 -0.21307,-3.11353 0,-3.068 0.728,-5.512 2.184,-7.332 1.456,-1.82867 3.41033,-2.743 5.863,-2.743 0.65866,0 1.32166,0.065 1.989,0.195 0.676,0.13 1.378,0.325 2.106,0.585" embroider_zigzag_spacing_mm="0.4" embroider_satin_column="True" embroider_pull_compensation_mm="0.2" embroider_center_walk_underlay="True" embroider_center_walk_underlay_stitch_length_mm="1.5" embroider_contour_underlay="False" embroider_zigzag_underlay="False" inkscape:connector-curvature="0"/>
    </g>
    
</svg>
