<?xml version="1.0" encoding="UTF-8" standalone="no"?>
<svg
>
<defs xmlns="http://www.w3.org/2000/svg" xmlns:dc="http://purl.org/dc/elements/1.1/" xmlns:cc="http://creativecommons.org/ns#" xmlns:rdf="http://www.w3.org/1999/02/22-rdf-syntax-ns#" xmlns:svg="http://www.w3.org/2000/svg" xmlns:sodipodi="http://sodipodi.sourceforge.net/DTD/sodipodi-0.dtd" xmlns:inkscape="http://www.inkscape.org/namespaces/inkscape" id="defs8377"/>
  
<g xmlns="http://www.w3.org/2000/svg" xmlns:inkscape="http://www.inkscape.org/namespaces/inkscape" xmlns:dc="http://purl.org/dc/elements/1.1/" xmlns:cc="http://creativecommons.org/ns#" xmlns:rdf="http://www.w3.org/1999/02/22-rdf-syntax-ns#" xmlns:svg="http://www.w3.org/2000/svg" xmlns:sodipodi="http://sodipodi.sourceforge.net/DTD/sodipodi-0.dtd" style="stroke:#000000;stroke-width:0.64999998;stroke-miterlimit:4;stroke-dasharray:none;stroke-opacity:1" inkscape:label="8" id="g49947">
      <path id="path49880" style="font-style:normal;font-variant:normal;font-weight:normal;font-stretch:normal;font-size:106.66666412px;line-height:100%;font-family:sans-serif;-inkscape-font-specification:sans-serif;font-variant-ligatures:normal;font-variant-position:normal;font-variant-caps:normal;font-variant-numeric:normal;font-variant-alternates:normal;font-feature-settings:normal;text-indent:0;text-align:start;text-decoration:none;text-decoration-line:none;text-decoration-style:solid;text-decoration-color:#000000;letter-spacing:50px;word-spacing:0px;text-transform:none;writing-mode:lr-tb;direction:ltr;text-orientation:mixed;dominant-baseline:auto;baseline-shift:baseline;text-anchor:start;white-space:normal;shape-padding:0;fill:none;fill-opacity:1;stroke:#000000;stroke-width:0.5;stroke-linecap:butt;stroke-linejoin:miter;stroke-miterlimit:4;stroke-dasharray:none;stroke-dashoffset:0;stroke-opacity:1" d="m 274.65426,293.88935 c 0.81627,-0.17505 1.92151,-0.60808 2.39389,-1.02869 0.64133,-0.56334 0.96199,-1.34767 0.96199,-2.353 0,-1.00534 -0.46613,-1.69269 -1.10745,-2.25603 -0.63267,-0.56333 -1.60931,-0.69953 -2.73598,-0.69953 -1.13533,0 -2.21328,0.0877 -2.84595,0.65105 -0.624,0.56333 -0.936,1.34766 -0.936,2.353 0,1.00533 0.50595,1.98361 1.12995,2.54695 0.63267,0.56333 1.51667,0.845 2.652,0.845 0,0 2.63901,0.94899 2.63901,0.94899 1.26532,0.29467 2.24898,0.87101 2.95099,1.729 0.71066,0.85801 1.066,1.90667 1.066,3.146 0,1.88067 -0.57634,3.32367 -1.72901,4.329 -1.144,1.00534 -2.78633,1.50801 -4.92699,1.50801 -2.14067,0 -3.78733,-0.50267 -4.93999,-1.50801 -1.14401,-1.00533 -1.716,-2.44833 -1.716,-4.329 0,-1.23933 0.35533,-2.28799 1.06599,-3.146 0.71067,-0.85799 1.69867,-1.43433 2.964,-1.729 m 5.39421,-0.13285 c 1.00546,-0.39347 2.07635,-0.9365 2.48379,-1.44014 0.63267,-0.77134 0.949,-1.71167 0.949,-2.82101 0,-1.55133 -0.55033,-2.77766 -1.651,-3.679 -1.10067,-0.90132 -2.61734,-1.35199 -4.55,-1.35199 -1.924,0 -3.44066,0.45067 -4.55,1.35199 -1.10066,0.90134 -1.651,2.12767 -1.651,3.679 0,1.10934 0.312,2.04967 0.936,2.82101 0.63267,0.77133 2.96695,1.65932 4.09362,1.93665 0,0 1.17138,0.75435 1.17138,0.75435 1.25666,0 2.24033,0.33366 2.95101,1.00099 0.71933,0.66734 1.27294,1.77995 1.27294,2.94995 0,1.16134 -0.45664,1.98303 -1.17597,2.65903 -0.71933,0.66733 -1.79997,0.90403 -3.04798,0.90403 -1.248,0 -2.28015,-0.18821 -2.99948,-0.85554 -0.71067,-0.66734 -1.21147,-1.63449 -1.21147,-2.80449 0,-1.17 0.54929,-2.18564 1.25995,-2.85298 0.59399,-0.55105 1.36823,-0.87459 2.32271,-0.9706 m 3.32729,1.48916 c 0,0 2.37588,-2.15768 2.37588,-2.15768 m -8.29133,-3.78201 c 0,0 -2.61832,1.67281 -2.61832,1.67281 m 9.10257,-2.75825 c 0,0 3.18857,0 3.18857,0 m -10.35429,9.66857 c 0,0 -3.39428,0 -3.39428,0 m 11.24571,0 c 0,0 3.01714,0 3.01714,0" embroider_zigzag_spacing_mm="0.4" embroider_satin_column="True" embroider_pull_compensation_mm="0.2" embroider_center_walk_underlay="True" embroider_center_walk_underlay_stitch_length_mm="1.5" embroider_contour_underlay="False" embroider_zigzag_underlay="False" inkscape:connector-curvature="0"/>
    </g>
    
</svg>
