<?xml version="1.0" encoding="UTF-8" standalone="no"?>
<svg
>
<defs xmlns="http://www.w3.org/2000/svg" xmlns:dc="http://purl.org/dc/elements/1.1/" xmlns:cc="http://creativecommons.org/ns#" xmlns:rdf="http://www.w3.org/1999/02/22-rdf-syntax-ns#" xmlns:svg="http://www.w3.org/2000/svg" xmlns:sodipodi="http://sodipodi.sourceforge.net/DTD/sodipodi-0.dtd" xmlns:inkscape="http://www.inkscape.org/namespaces/inkscape" id="defs8377"/>
  
<g xmlns="http://www.w3.org/2000/svg" xmlns:inkscape="http://www.inkscape.org/namespaces/inkscape" xmlns:dc="http://purl.org/dc/elements/1.1/" xmlns:cc="http://creativecommons.org/ns#" xmlns:rdf="http://www.w3.org/1999/02/22-rdf-syntax-ns#" xmlns:svg="http://www.w3.org/2000/svg" xmlns:sodipodi="http://sodipodi.sourceforge.net/DTD/sodipodi-0.dtd" style="stroke:#000000;stroke-width:0.64999998;stroke-miterlimit:4;stroke-dasharray:none;stroke-opacity:1" inkscape:label="8" id="g49947">
      <path embroider_zigzag_underlay="False" embroider_contour_underlay="False" embroider_center_walk_underlay_stitch_length_mm="1.5" embroider_center_walk_underlay="True" embroider_pull_compensation_mm="0.2" embroider_satin_column="True" embroider_zigzag_spacing_mm="0.4" inkscape:connector-curvature="0" d="m 676.59907,743.48533 c 2.12569,-0.45585 5.00392,-1.58353 6.23409,-2.67888 1.67011,-1.46702 2.50517,-3.50955 2.50517,-6.1276 0,-2.61806 -1.21387,-4.40805 -2.88398,-5.87507 -1.64758,-1.46701 -4.19092,-1.82171 -7.12495,-1.82171 -2.95659,0 -5.76375,0.22843 -7.41133,1.69544 -1.625,1.46702 -2.4375,3.50955 -2.4375,6.12761 0,2.61805 1.31758,5.16566 2.94258,6.63268 1.64757,1.46701 3.94966,2.20052 6.90625,2.20052 l 6.87241,2.47135 c 3.29511,0.76736 5.85674,2.26823 7.68489,4.5026 1.85068,2.23438 2.77602,4.96528 2.77602,8.19271 0,4.89757 -1.50087,8.65539 -4.50261,11.27344 -2.97917,2.61806 -7.25607,3.92709 -12.83071,3.92709 -5.57465,0 -9.86284,-1.30903 -12.86457,-3.92709 -2.97917,-2.61805 -4.46875,-6.37587 -4.46875,-11.27344 0,-3.22743 0.92534,-5.95833 2.77603,-8.19271 1.85069,-2.23437 4.42361,-3.73524 7.71875,-4.5026 m 14.04743,-0.34598 c 2.61838,-1.02465 5.40714,-2.43881 6.46818,-3.75037 1.64758,-2.00868 2.47137,-4.45747 2.47137,-7.34636 0,-4.03993 -1.43316,-7.2335 -4.29949,-9.58073 -2.86633,-2.34721 -6.81598,-3.52082 -11.84895,-3.52082 -5.01041,0 -8.96006,1.17361 -11.84895,3.52082 -2.86632,2.34723 -4.29948,5.5408 -4.29948,9.58073 0,2.88889 0.8125,5.33768 2.4375,7.34636 1.64757,2.00868 7.72643,4.32115 10.66046,5.04337 l 3.05047,1.96444 c 3.27255,0 5.83419,0.86892 7.68491,2.60677 1.87326,1.73785 3.31497,4.63528 3.31497,7.68216 0,3.02431 -1.18917,5.16413 -3.06243,6.92455 -1.87326,1.73784 -4.68743,2.35423 -7.93745,2.35423 -3.25,0 -5.9379,-0.49012 -7.81116,-2.22796 -1.85069,-1.73785 -3.15485,-4.25648 -3.15485,-7.30336 0,-3.04688 1.43043,-5.69177 3.28112,-7.42962 1.54685,-1.43504 3.56309,-2.27758 6.04871,-2.52763 m 8.66482,3.87804 6.18719,-5.61897 m -21.59201,-9.84899 -6.81853,4.35628 m 23.7046,-7.18293 h 8.30357 m -26.96429,25.17857 h -8.83928 m 29.28571,0 h 7.85714" style="font-style:normal;font-variant:normal;font-weight:normal;font-stretch:normal;font-size:106.66666412px;line-height:100%;font-family:sans-serif;-inkscape-font-specification:sans-serif;font-variant-ligatures:normal;font-variant-position:normal;font-variant-caps:normal;font-variant-numeric:normal;font-variant-alternates:normal;font-feature-settings:normal;text-indent:0;text-align:start;text-decoration:none;text-decoration-line:none;text-decoration-style:solid;text-decoration-color:#000000;letter-spacing:50px;word-spacing:0px;text-transform:none;writing-mode:lr-tb;direction:ltr;text-orientation:mixed;dominant-baseline:auto;baseline-shift:baseline;text-anchor:start;white-space:normal;shape-padding:0;fill:none;fill-opacity:1;stroke:#000000;stroke-width:0.64999998;stroke-linecap:butt;stroke-linejoin:miter;stroke-miterlimit:4;stroke-dasharray:none;stroke-dashoffset:0;stroke-opacity:1" id="path49880" sodipodi:nodetypes="ccscscsccccscscsccccscscsccccscscscccccc"/>
    </g>
    
</svg>
