<?xml version="1.0" encoding="UTF-8" standalone="no"?>
<svg
>
<defs xmlns="http://www.w3.org/2000/svg" xmlns:dc="http://purl.org/dc/elements/1.1/" xmlns:cc="http://creativecommons.org/ns#" xmlns:rdf="http://www.w3.org/1999/02/22-rdf-syntax-ns#" xmlns:svg="http://www.w3.org/2000/svg" xmlns:sodipodi="http://sodipodi.sourceforge.net/DTD/sodipodi-0.dtd" xmlns:inkscape="http://www.inkscape.org/namespaces/inkscape" id="defs8377"/>
  
<g xmlns="http://www.w3.org/2000/svg" xmlns:inkscape="http://www.inkscape.org/namespaces/inkscape" xmlns:dc="http://purl.org/dc/elements/1.1/" xmlns:cc="http://creativecommons.org/ns#" xmlns:rdf="http://www.w3.org/1999/02/22-rdf-syntax-ns#" xmlns:svg="http://www.w3.org/2000/svg" xmlns:sodipodi="http://sodipodi.sourceforge.net/DTD/sodipodi-0.dtd" style="stroke:#000000;stroke-width:0.64999998;stroke-miterlimit:4;stroke-dasharray:none;stroke-opacity:1" inkscape:label="9" id="g49950">
      <path embroider_zigzag_underlay="False" embroider_contour_underlay="False" embroider_center_walk_underlay_stitch_length_mm="1.5" embroider_center_walk_underlay="True" embroider_pull_compensation_mm="0.2" embroider_satin_column="True" embroider_zigzag_spacing_mm="0.4" d="m 298.0607,304.8291 c 0.728,0.26 1.43,0.45499 2.10601,0.585 0.67599,0.13 1.34333,0.195 2.00201,0.195 2.45267,0 4.40267,-0.91 5.85,-2.73 1.456,-1.82867 2.184,-4.27267 2.184,-7.332 0,-3.276 -0.59366,-5.772 -1.78099,-7.488 -1.17868,-1.72467 -2.89036,-2.587 -5.13502,-2.587 -1.95867,0 -3.52733,0.60233 -4.70599,1.807 -1.17868,1.20466 -1.76802,2.80366 -1.76802,4.797 0,2.03666 0.56334,3.64433 1.69002,4.82299 1.13533,1.17 2.67367,1.755 4.61501,1.755 0.936,0 1.78966,-0.19933 2.56099,-0.598 0.77133,-0.39866 1.40833,-0.97066 1.91099,-1.716 m -9.52901,6.09701 c 0.65868,0.312 1.32602,0.55033 2.00202,0.715 0.676,0.16466 1.33899,0.247 1.98899,0.247 1.73334,0 3.055,-0.58067 3.96499,-1.742 0.91868,-1.17001 1.54588,-3.06234 1.67587,-5.43701 0,0 -0.69167,-2.16606 -0.69167,-2.16606 0.29874,-0.60338 0.3951,-1.1827 0.3951,-1.97793 0,-1.39534 -0.62095,-2.496 -1.31427,-3.302 -0.68467,-0.81467 -1.61635,-1.222 -2.79502,-1.222 -1.17867,0 -2.11467,0.40733 -2.808,1.222 -0.68466,0.806 -1.2327,1.90666 -1.2327,3.302 0,1.404 0.54804,2.509 1.2327,3.315 0.69333,0.806 1.62933,1.209 2.808,1.209 1.17867,0 2.11035,-0.403 2.79502,-1.209 0.30061,-0.34948 0.58763,-0.75517 0.81632,-1.21707 m -0.0187,-2.02147 c 0,0 3.4426,0 3.4426,0 m -7.1519,3.97596 c 0,0 0,2.98197 0,2.98197 m -0.0485,-11.07935 c 0,0 0,-2.98197 0,-2.98197 m -3.51532,7.24885 c 0,0 -3.20017,0 -3.20017,0" style="font-style:normal;font-variant:normal;font-weight:normal;font-stretch:normal;font-size:106.66666412px;line-height:100%;font-family:sans-serif;-inkscape-font-specification:sans-serif;font-variant-ligatures:normal;font-variant-position:normal;font-variant-caps:normal;font-variant-numeric:normal;font-variant-alternates:normal;font-feature-settings:normal;text-indent:0;text-align:start;text-decoration:none;text-decoration-line:none;text-decoration-style:solid;text-decoration-color:#000000;letter-spacing:50px;word-spacing:0px;text-transform:none;writing-mode:lr-tb;direction:ltr;text-orientation:mixed;dominant-baseline:auto;baseline-shift:baseline;text-anchor:start;white-space:normal;shape-padding:0;fill:none;fill-opacity:1;stroke:#000000;stroke-width:0.5;stroke-linecap:butt;stroke-linejoin:miter;stroke-miterlimit:4;stroke-dasharray:none;stroke-dashoffset:0;stroke-opacity:1" id="path3771" inkscape:connector-curvature="0"/>
    </g>
    
</svg>
