<?xml version="1.0" encoding="UTF-8" standalone="no"?>
<svg
>
<defs xmlns="http://www.w3.org/2000/svg" xmlns:dc="http://purl.org/dc/elements/1.1/" xmlns:cc="http://creativecommons.org/ns#" xmlns:rdf="http://www.w3.org/1999/02/22-rdf-syntax-ns#" xmlns:svg="http://www.w3.org/2000/svg" xmlns:sodipodi="http://sodipodi.sourceforge.net/DTD/sodipodi-0.dtd" xmlns:inkscape="http://www.inkscape.org/namespaces/inkscape" id="defs8377"/>
  
<g xmlns="http://www.w3.org/2000/svg" xmlns:inkscape="http://www.inkscape.org/namespaces/inkscape" xmlns:dc="http://purl.org/dc/elements/1.1/" xmlns:cc="http://creativecommons.org/ns#" xmlns:rdf="http://www.w3.org/1999/02/22-rdf-syntax-ns#" xmlns:svg="http://www.w3.org/2000/svg" xmlns:sodipodi="http://sodipodi.sourceforge.net/DTD/sodipodi-0.dtd" style="stroke:#000000;stroke-width:0.64999998;stroke-miterlimit:4;stroke-dasharray:none;stroke-opacity:1" inkscape:label="9" id="g49950">
      <path id="path3771" style="font-style:normal;font-variant:normal;font-weight:normal;font-stretch:normal;font-size:106.66666412px;line-height:100%;font-family:sans-serif;-inkscape-font-specification:sans-serif;font-variant-ligatures:normal;font-variant-position:normal;font-variant-caps:normal;font-variant-numeric:normal;font-variant-alternates:normal;font-feature-settings:normal;text-indent:0;text-align:start;text-decoration:none;text-decoration-line:none;text-decoration-style:solid;text-decoration-color:#000000;letter-spacing:50px;word-spacing:0px;text-transform:none;writing-mode:lr-tb;direction:ltr;text-orientation:mixed;dominant-baseline:auto;baseline-shift:baseline;text-anchor:start;white-space:normal;shape-padding:0;fill:none;fill-opacity:1;stroke:#000000;stroke-width:0.64999998;stroke-linecap:butt;stroke-linejoin:miter;stroke-miterlimit:4;stroke-dasharray:none;stroke-dashoffset:0;stroke-opacity:1" d="m 737.55334,771.97426 c 1.89583,0.67708 3.72396,1.18489 5.48438,1.52344 1.76041,0.33854 3.49827,0.50781 5.21358,0.50781 6.38716,0 11.46529,-2.36979 15.23438,-7.10938 3.79167,-4.76215 5.6875,-11.12674 5.6875,-19.09375 0,-8.53125 -1.546,-15.03125 -4.63801,-19.5 -3.06947,-4.49131 -7.52696,-6.73697 -13.37245,-6.73697 -5.10068,0 -9.18574,1.56857 -12.25517,4.70572 -3.06947,3.13715 -4.60421,7.30122 -4.60421,12.49219 0,5.30382 1.46703,9.49045 4.40109,12.55989 2.95659,3.04687 6.96267,4.57031 12.01824,4.57031 2.4375,0 4.66059,-0.5191 6.66926,-1.55729 2.00867,-1.03819 3.66752,-2.52777 4.97653,-4.46875 m -24.81512,15.87761 c 1.71531,0.8125 3.45317,1.43316 5.21359,1.86198 1.76041,0.42882 3.48696,0.64323 5.17965,0.64323 4.51391,0 7.95574,-1.51215 10.32551,-4.53646 2.39239,-3.04688 4.02571,-7.97483 4.36423,-14.15886 l -1.80121,-5.64078 c 0.77797,-1.57132 1.02889,-3.07995 1.02889,-5.15088 0,-3.63368 -1.61705,-6.5 -3.42258,-8.59896 -1.78299,-2.12153 -4.20923,-3.18229 -7.2787,-3.18229 -3.06943,0 -5.50693,1.06076 -7.3125,3.18229 -1.78295,2.09896 -3.21014,4.96528 -3.21014,8.59896 0,3.65625 1.42719,6.53386 3.21014,8.63281 1.80557,2.09896 4.24307,3.14844 7.3125,3.14844 3.06947,0 5.49571,-1.04948 7.2787,-3.14844 0.78286,-0.91009 1.53029,-1.96657 2.12583,-3.16943 m -0.0486,-5.26426 h 8.9651 m -18.62474,10.35407 v 7.76555 m -0.12627,-28.85249 v -7.76554 m -9.1545,18.87722 h -8.33376" inkscape:connector-curvature="0" sodipodi:nodetypes="ccscscscscsscccscccscscscscc" embroider_zigzag_spacing_mm="0.4" embroider_satin_column="True" embroider_pull_compensation_mm="0.2" embroider_center_walk_underlay="True" embroider_center_walk_underlay_stitch_length_mm="1.5" embroider_contour_underlay="False" embroider_zigzag_underlay="False"/>
    </g>
    
</svg>
