<?xml version="1.0" encoding="UTF-8" standalone="no"?>
<svg
>
<defs xmlns="http://www.w3.org/2000/svg" xmlns:dc="http://purl.org/dc/elements/1.1/" xmlns:cc="http://creativecommons.org/ns#" xmlns:rdf="http://www.w3.org/1999/02/22-rdf-syntax-ns#" xmlns:svg="http://www.w3.org/2000/svg" xmlns:sodipodi="http://sodipodi.sourceforge.net/DTD/sodipodi-0.dtd" xmlns:inkscape="http://www.inkscape.org/namespaces/inkscape" id="defs8377"/>
  
<g xmlns="http://www.w3.org/2000/svg" xmlns:inkscape="http://www.inkscape.org/namespaces/inkscape" xmlns:dc="http://purl.org/dc/elements/1.1/" xmlns:cc="http://creativecommons.org/ns#" xmlns:rdf="http://www.w3.org/1999/02/22-rdf-syntax-ns#" xmlns:svg="http://www.w3.org/2000/svg" xmlns:sodipodi="http://sodipodi.sourceforge.net/DTD/sodipodi-0.dtd" style="stroke:#000000;stroke-width:0.64999998;stroke-miterlimit:4;stroke-dasharray:none;stroke-opacity:1" inkscape:label="@" id="g49953">
      <path embroider_running_stitch_length_mm="1.5" id="path3267" d="m 32.741116,341.5364 c 0.192156,5.76415 5.17058,11.37554 11.205217,10.84974 2.267585,-0.0987 4.524081,-0.85739 6.326078,-2.25109" style="opacity:1;vector-effect:none;fill:none;fill-opacity:1;fill-rule:evenodd;stroke:#000000;stroke-width:0.5;stroke-linecap:butt;stroke-linejoin:miter;stroke-miterlimit:4;stroke-dasharray:0.5, 1;stroke-dashoffset:0;stroke-opacity:1" inkscape:connector-curvature="0"/>
      <path embroider_center_walk_underlay="False" d="m 49.931659,349.22346 c -0.900939,0.70169 -1.892839,1.23879 -2.975696,1.61129 -1.074197,0.38117 -2.17005,0.57175 -3.28756,0.57175 -1.36007,0 -2.637844,-0.23823 -3.83332,-0.71468 -1.195476,-0.4678 -2.248015,-1.15217 -3.157616,-2.0531 -0.944253,-0.91827 -1.667602,-1.97947 -2.170049,-3.18361 -0.493784,-1.20414 -0.740675,-2.4949 -0.740675,-3.8723 m 17.334401,9.08302 c -1.082857,0.8403 -2.265338,1.48135 -3.547443,1.92316 -1.273443,0.45047 -2.568542,0.6757 -3.885298,0.6757 -1.602631,0 -3.114302,-0.28588 -4.535012,-0.85762 -1.420711,-0.56309 -2.68549,-1.38607 -3.794337,-2.46892 -1.108848,-1.08286 -1.953478,-2.33465 -2.53389,-3.75536 -0.580412,-1.42937 -0.870618,-2.9627 -0.870618,-4.59998" style="font-style:normal;font-variant:normal;font-weight:normal;font-stretch:normal;font-size:106.66666412px;line-height:100%;font-family:sans-serif;-inkscape-font-specification:sans-serif;font-variant-ligatures:normal;font-variant-position:normal;font-variant-caps:normal;font-variant-numeric:normal;font-variant-alternates:normal;font-feature-settings:normal;text-indent:0;text-align:start;text-decoration:none;text-decoration-line:none;text-decoration-style:solid;text-decoration-color:#000000;letter-spacing:50px;word-spacing:0px;text-transform:none;writing-mode:lr-tb;direction:ltr;text-orientation:mixed;dominant-baseline:auto;baseline-shift:baseline;text-anchor:start;white-space:normal;shape-padding:0;fill:none;fill-opacity:1;stroke:#000000;stroke-width:0.5;stroke-linecap:butt;stroke-linejoin:miter;stroke-miterlimit:4;stroke-dasharray:none;stroke-dashoffset:0;stroke-opacity:1" id="path3236" embroider_zigzag_spacing_mm="0.4" embroider_satin_column="True" embroider_pull_compensation_mm="0.2" embroider_center_walk_underlay_stitch_length_mm="1.5" embroider_contour_underlay="False" embroider_zigzag_underlay="False" inkscape:connector-curvature="0"/>
      <path d="m 33.766743,341.58281 c 0,-1.67194 0.381166,-3.22259 1.143499,-4.65196 0.770995,-1.43804 1.836528,-2.59886 3.196599,-3.48248 0.831635,-0.55442 1.736905,-0.97024 2.715809,-1.24745 0.978905,-0.28588 2.001123,-0.42881 3.066656,-0.42881 1.524666,0 2.932381,0.3032 4.223149,0.9096 1.29943,0.59774 2.399614,1.46402 3.300552,2.59886 0.554426,0.69303 0.96591,1.4467 1.23446,2.26101 0.277211,0.81431 0.415818,1.68493 0.415818,2.61185 m -21.128739,1.42938 c 0,-1.57664 0.294537,-3.07965 0.883612,-4.50903 0.589075,-1.42937 1.429374,-2.68549 2.520896,-3.76834 1.11751,-1.10019 2.408278,-1.94049 3.872303,-2.5209 1.464025,-0.58907 3.014678,-0.88361 4.651961,-0.88361 1.836527,0 3.538782,0.37683 5.106761,1.1305 1.576641,0.75367 2.897729,1.82353 3.963261,3.20959 0.649716,0.84897 1.143498,1.77156 1.481353,2.76779 0.346514,0.99623 0.519771,2.02711 0.519771,3.09265 m -10.89944,-7.7873 c 0,0 0,-3.07408 0,-3.07408" style="font-style:normal;font-variant:normal;font-weight:normal;font-stretch:normal;font-size:106.66666412px;line-height:100%;font-family:sans-serif;-inkscape-font-specification:sans-serif;font-variant-ligatures:normal;font-variant-position:normal;font-variant-caps:normal;font-variant-numeric:normal;font-variant-alternates:normal;font-feature-settings:normal;text-indent:0;text-align:start;text-decoration:none;text-decoration-line:none;text-decoration-style:solid;text-decoration-color:#000000;letter-spacing:50px;word-spacing:0px;text-transform:none;writing-mode:lr-tb;direction:ltr;text-orientation:mixed;dominant-baseline:auto;baseline-shift:baseline;text-anchor:start;white-space:normal;shape-padding:0;fill:none;fill-opacity:1;stroke:#000000;stroke-width:0.5;stroke-linecap:butt;stroke-linejoin:miter;stroke-miterlimit:4;stroke-dasharray:none;stroke-dashoffset:0;stroke-opacity:1" id="path3257" embroider_zigzag_spacing_mm="0.4" embroider_satin_column="True" embroider_pull_compensation_mm="0.2" embroider_center_walk_underlay="True" embroider_center_walk_underlay_stitch_length_mm="1.5" embroider_contour_underlay="False" embroider_zigzag_underlay="False" inkscape:connector-curvature="0"/>
      <path embroider_running_stitch_length_mm="1.5" id="path3291" d="m 53.858718,340.17757 c 0.267625,0.71439 0.03575,1.48112 -0.245764,2.15218 -0.191735,0.44393 -0.300568,0.92504 -0.56607,1.33627 -0.229434,0.48456 -0.506833,0.94822 -0.880984,1.33553 -0.339744,0.40512 -0.758175,0.79145 -1.291768,0.90466 -0.589516,0.18868 -1.168774,0.42925 -1.787608,0.50132 -0.342037,0.0183 -0.740583,0.22375 -1.050141,0.0141 -0.109664,-0.31746 -0.254915,-1.09602 -0.305531,-1.44065" style="opacity:1;vector-effect:none;fill:none;fill-opacity:1;fill-rule:evenodd;stroke:#000000;stroke-width:0.5;stroke-linecap:butt;stroke-linejoin:miter;stroke-miterlimit:4;stroke-dasharray:0.5, 1;stroke-dashoffset:0;stroke-opacity:1" inkscape:connector-curvature="0"/>
      <path d="m 46.845566,344.03563 c -0.953206,0.98219 -1.738847,1.54746 -3.307106,1.6014 -1.074196,0 -1.918825,-0.35084 -2.533889,-1.05254 -0.615064,-0.71035 -0.922596,-1.68493 -0.922596,-2.92372 0,-1.22146 0.307532,-2.18737 0.922596,-2.89773 0.623727,-0.71035 1.459693,-1.06553 2.5079,-1.06553 1.170383,0.013 2.315595,0.4933 3.252689,1.38151 m 0.398711,6.95712 c -0.519771,0.66704 -1.117511,0.87124 -1.793214,1.19177 -0.667041,0.31186 -1.4467,0.26731 -2.338975,0.26731 -1.490014,0 -2.702815,-0.5371 -3.638405,-1.6113 -0.926927,-1.08286 -1.390391,-2.49057 -1.390391,-4.22315 0,-1.73257 0.467795,-3.14029 1.403385,-4.22315 0.93559,-1.08285 2.144061,-1.62428 3.625411,-1.62428 0.892275,0 1.899026,0.0978 2.351969,0.27102 0.675703,0.32053 1.157731,0.55603 1.78022,1.05848 m -6.648447,4.8168 c 0,0 -3.051806,0 -3.051806,0" style="font-style:normal;font-variant:normal;font-weight:normal;font-stretch:normal;font-size:106.66666412px;line-height:100%;font-family:sans-serif;-inkscape-font-specification:sans-serif;font-variant-ligatures:normal;font-variant-position:normal;font-variant-caps:normal;font-variant-numeric:normal;font-variant-alternates:normal;font-feature-settings:normal;text-indent:0;text-align:start;text-decoration:none;text-decoration-line:none;text-decoration-style:solid;text-decoration-color:#000000;letter-spacing:50px;word-spacing:0px;text-transform:none;writing-mode:lr-tb;direction:ltr;text-orientation:mixed;dominant-baseline:auto;baseline-shift:baseline;text-anchor:start;white-space:normal;shape-padding:0;fill:none;fill-opacity:1;stroke:#000000;stroke-width:0.5;stroke-linecap:butt;stroke-linejoin:miter;stroke-miterlimit:4;stroke-dasharray:none;stroke-dashoffset:0;stroke-opacity:1" id="path3287" embroider_zigzag_spacing_mm="0.4" embroider_satin_column="True" embroider_pull_compensation_mm="0.2" embroider_center_walk_underlay="True" embroider_center_walk_underlay_stitch_length_mm="1.5" embroider_contour_underlay="False" embroider_zigzag_underlay="False" inkscape:connector-curvature="0"/>
      <path d="m 49.022058,336.07322 c 0,0 0,8.73721 0,8.73721 -0.01487,0.34276 0.208345,0.79124 0.583234,0.7062 0.989094,-0.26347 1.782249,-0.79941 2.379465,-1.60784 0.71902,-0.97024 1.078528,-2.22203 1.078528,-3.75536 m -5.899414,-4.08021 c 0,0 0,1.06962 0,1.06962 -0.637134,2.96443 -0.549565,5.92887 0,8.8933 0,0 0,0.66447 0,0.66447 0.02519,0.55508 0.278255,1.07356 0.785217,0.97832 2.054394,-0.20177 3.694154,-1.01364 4.919283,-2.18484 1.377396,-1.31675 2.066093,-3.1143 2.066093,-5.39263 m -8.538188,1.63542 c 0,0 3.140908,0 3.140908,0 m -0.0698,3.26257 c 0,0 -2.457229,2.99278 -2.457229,2.99278 m 4.363158,-4.15839 c 0,0 1.543646,2.1737 1.543646,2.1737" style="font-style:normal;font-variant:normal;font-weight:normal;font-stretch:normal;font-size:106.66666412px;line-height:100%;font-family:sans-serif;-inkscape-font-specification:sans-serif;font-variant-ligatures:normal;font-variant-position:normal;font-variant-caps:normal;font-variant-numeric:normal;font-variant-alternates:normal;font-feature-settings:normal;text-indent:0;text-align:start;text-decoration:none;text-decoration-line:none;text-decoration-style:solid;text-decoration-color:#000000;letter-spacing:50px;word-spacing:0px;text-transform:none;writing-mode:lr-tb;direction:ltr;text-orientation:mixed;dominant-baseline:auto;baseline-shift:baseline;text-anchor:start;white-space:normal;shape-padding:0;fill:none;fill-opacity:1;stroke:#000000;stroke-width:0.5;stroke-linecap:butt;stroke-linejoin:miter;stroke-miterlimit:4;stroke-dasharray:none;stroke-dashoffset:0;stroke-opacity:1" id="path3259" embroider_zigzag_spacing_mm="0.4" embroider_satin_column="True" embroider_pull_compensation_mm="0.2" embroider_center_walk_underlay="True" embroider_center_walk_underlay_stitch_length_mm="1.5" embroider_contour_underlay="False" embroider_zigzag_underlay="False" inkscape:connector-curvature="0"/>
    </g>
    
</svg>
