<?xml version="1.0" encoding="UTF-8" standalone="no"?>
<svg
>
<defs xmlns="http://www.w3.org/2000/svg" xmlns:dc="http://purl.org/dc/elements/1.1/" xmlns:cc="http://creativecommons.org/ns#" xmlns:rdf="http://www.w3.org/1999/02/22-rdf-syntax-ns#" xmlns:svg="http://www.w3.org/2000/svg" xmlns:sodipodi="http://sodipodi.sourceforge.net/DTD/sodipodi-0.dtd" xmlns:inkscape="http://www.inkscape.org/namespaces/inkscape" id="defs8377"/>
  
<g xmlns="http://www.w3.org/2000/svg" xmlns:inkscape="http://www.inkscape.org/namespaces/inkscape" xmlns:dc="http://purl.org/dc/elements/1.1/" xmlns:cc="http://creativecommons.org/ns#" xmlns:rdf="http://www.w3.org/1999/02/22-rdf-syntax-ns#" xmlns:svg="http://www.w3.org/2000/svg" xmlns:sodipodi="http://sodipodi.sourceforge.net/DTD/sodipodi-0.dtd" style="stroke:#000000;stroke-width:0.64999998;stroke-miterlimit:4;stroke-dasharray:none;stroke-opacity:1" inkscape:label="@" id="g49953">
      <path style="opacity:1;vector-effect:none;fill:none;fill-opacity:1;fill-rule:evenodd;stroke:#000000;stroke-width:0.64971524;stroke-linecap:butt;stroke-linejoin:miter;stroke-miterlimit:4;stroke-dasharray:0.64971527, 1.29943054;stroke-dashoffset:0;stroke-opacity:1" d="m 46.616915,867.5662 c 0.500406,15.0108 13.46505,29.62379 29.180251,28.25453 5.905171,-0.25709 11.781462,-2.23279 16.474161,-5.86221" id="path3267" inkscape:connector-curvature="0" embroider_running_stitch_length_mm="1.5"/>
      <path embroider_zigzag_underlay="False" embroider_contour_underlay="False" embroider_center_walk_underlay_stitch_length_mm="1.5" embroider_pull_compensation_mm="0.2" embroider_satin_column="True" embroider_zigzag_spacing_mm="0.4" id="path3236" style="font-style:normal;font-variant:normal;font-weight:normal;font-stretch:normal;font-size:106.66666412px;line-height:100%;font-family:sans-serif;-inkscape-font-specification:sans-serif;font-variant-ligatures:normal;font-variant-position:normal;font-variant-caps:normal;font-variant-numeric:normal;font-variant-alternates:normal;font-feature-settings:normal;text-indent:0;text-align:start;text-decoration:none;text-decoration-line:none;text-decoration-style:solid;text-decoration-color:#000000;letter-spacing:50px;word-spacing:0px;text-transform:none;writing-mode:lr-tb;direction:ltr;text-orientation:mixed;dominant-baseline:auto;baseline-shift:baseline;text-anchor:start;white-space:normal;shape-padding:0;fill:none;fill-opacity:1;stroke:#000000;stroke-width:0.64971524px;stroke-linecap:butt;stroke-linejoin:miter;stroke-miterlimit:4;stroke-dasharray:none;stroke-dashoffset:0;stroke-opacity:1" d="m 91.383952,887.58458 c -2.346193,1.82733 -4.929266,3.22602 -7.749206,4.19608 -2.797388,0.99262 -5.651172,1.48893 -8.561355,1.48893 -3.54185,0 -6.869385,-0.62039 -9.982604,-1.86116 -3.113219,-1.21822 -5.854205,-3.00043 -8.222959,-5.34662 -2.458991,-2.39131 -4.342714,-5.15486 -5.651169,-8.29064 -1.285895,-3.13578 -1.928842,-6.49715 -1.928842,-10.08412 m 45.141669,23.6537 c -2.81994,2.18827 -5.899317,3.85768 -9.238133,5.00822 -3.316257,1.1731 -6.688909,1.75965 -10.117962,1.75965 -4.173518,0 -8.110161,-0.74447 -11.809928,-2.2334 -3.699768,-1.46637 -6.993463,-3.60954 -9.881086,-6.42948 -2.887624,-2.81994 -5.087181,-6.0798 -6.598671,-9.77957 -1.51149,-3.72232 -2.267235,-7.71537 -2.267235,-11.97912" inkscape:connector-curvature="0" embroider_center_walk_underlay="False"/>
      <path embroider_zigzag_underlay="False" embroider_contour_underlay="False" embroider_center_walk_underlay_stitch_length_mm="1.5" embroider_center_walk_underlay="True" embroider_pull_compensation_mm="0.2" embroider_satin_column="True" embroider_zigzag_spacing_mm="0.4" id="path3257" style="font-style:normal;font-variant:normal;font-weight:normal;font-stretch:normal;font-size:106.66666412px;line-height:100%;font-family:sans-serif;-inkscape-font-specification:sans-serif;font-variant-ligatures:normal;font-variant-position:normal;font-variant-caps:normal;font-variant-numeric:normal;font-variant-alternates:normal;font-feature-settings:normal;text-indent:0;text-align:start;text-decoration:none;text-decoration-line:none;text-decoration-style:solid;text-decoration-color:#000000;letter-spacing:50px;word-spacing:0px;text-transform:none;writing-mode:lr-tb;direction:ltr;text-orientation:mixed;dominant-baseline:auto;baseline-shift:baseline;text-anchor:start;white-space:normal;shape-padding:0;fill:none;fill-opacity:1;stroke:#000000;stroke-width:0.64971524px;stroke-linecap:butt;stroke-linejoin:miter;stroke-miterlimit:4;stroke-dasharray:none;stroke-dashoffset:0;stroke-opacity:1" d="m 49.287817,867.68705 c 0,-4.354 0.992621,-8.39216 2.977862,-12.11448 2.0078,-3.74489 4.782626,-6.76787 8.324476,-9.06895 2.165718,-1.44381 4.523191,-2.52667 7.072421,-3.24858 2.54923,-0.74446 5.211258,-1.11669 7.986084,-1.11669 3.970482,0 7.636409,0.78958 10.997783,2.36875 3.383931,1.55661 6.248994,3.81257 8.595187,6.76787 1.443817,1.80476 2.515392,3.76744 3.214739,5.88804 0.721905,2.1206 1.082861,4.38784 1.082861,6.80171 m -55.022759,3.72233 c 0,-4.10584 0.767024,-8.01993 2.301074,-11.74225 1.53405,-3.72233 3.722327,-6.99347 6.564832,-9.81341 2.910183,-2.86506 6.271557,-5.05334 10.084122,-6.56483 3.812565,-1.53405 7.850726,-2.30107 12.114482,-2.30107 4.782624,0 9.215579,0.98134 13.298858,2.94402 4.105836,1.96268 7.54617,4.74878 10.320993,8.35831 1.691968,2.21084 2.977858,4.61343 3.857688,7.20778 0.90238,2.59435 1.35357,5.27894 1.35357,8.05376 M 76.028133,843.54994 v -8.00542" inkscape:connector-curvature="0" sodipodi:nodetypes="ccccscccccsccscccc"/>
      <path style="opacity:1;vector-effect:none;fill:none;fill-opacity:1;fill-rule:evenodd;stroke:#000000;stroke-width:0.64971524;stroke-linecap:butt;stroke-linejoin:miter;stroke-miterlimit:4;stroke-dasharray:0.64971527, 1.29943054;stroke-dashoffset:0;stroke-opacity:1" d="m 101.61067,864.02757 c 0.69694,1.8604 0.0931,3.8571 -0.64001,5.60463 -0.49931,1.15609 -0.78273,2.40898 -1.474142,3.47987 -0.597485,1.26189 -1.319877,2.46932 -2.294229,3.47796 -0.88475,1.05498 -1.974414,2.06106 -3.363979,2.35589 -1.535199,0.49133 -3.043682,1.11783 -4.65523,1.3055 -0.89072,0.0476 -1.928601,0.58268 -2.734742,0.0367 -0.285582,-0.82672 -0.66384,-2.85421 -0.795654,-3.75168" id="path3291" inkscape:connector-curvature="0" sodipodi:nodetypes="cccccccc" embroider_running_stitch_length_mm="1.5"/>
      <path embroider_zigzag_underlay="False" embroider_contour_underlay="False" embroider_center_walk_underlay_stitch_length_mm="1.5" embroider_center_walk_underlay="True" embroider_pull_compensation_mm="0.2" embroider_satin_column="True" embroider_zigzag_spacing_mm="0.4" id="path3287" style="font-style:normal;font-variant:normal;font-weight:normal;font-stretch:normal;font-size:106.66666412px;line-height:100%;font-family:sans-serif;-inkscape-font-specification:sans-serif;font-variant-ligatures:normal;font-variant-position:normal;font-variant-caps:normal;font-variant-numeric:normal;font-variant-alternates:normal;font-feature-settings:normal;text-indent:0;text-align:start;text-decoration:none;text-decoration-line:none;text-decoration-style:solid;text-decoration-color:#000000;letter-spacing:50px;word-spacing:0px;text-transform:none;writing-mode:lr-tb;direction:ltr;text-orientation:mixed;dominant-baseline:auto;baseline-shift:baseline;text-anchor:start;white-space:normal;shape-padding:0;fill:none;fill-opacity:1;stroke:#000000;stroke-width:0.64971524px;stroke-linecap:butt;stroke-linejoin:miter;stroke-miterlimit:4;stroke-dasharray:none;stroke-dashoffset:0;stroke-opacity:1" d="m 83.347253,874.0746 c -2.482308,2.55779 -4.528249,4.02984 -8.612256,4.17032 -2.797384,0 -4.996941,-0.91366 -6.59867,-2.74099 -1.601728,-1.84988 -2.402593,-4.38783 -2.402593,-7.61385 0,-3.18089 0.800865,-5.69628 2.402593,-7.54617 1.624289,-1.84988 3.801286,-2.77483 6.530992,-2.77483 3.047871,0.0339 6.030194,1.28465 8.470544,3.59769 m 1.03831,18.1175 c -1.353571,1.73709 -2.910185,2.26885 -4.669828,3.10356 -1.737086,0.81214 -3.767448,0.69612 -6.091082,0.69612 -3.880244,0 -7.038582,-1.39869 -9.475014,-4.19608 -2.413872,-2.81995 -3.620808,-6.48587 -3.620808,-10.99779 0,-4.51191 1.218216,-8.17784 3.654648,-10.99778 2.436432,-2.81994 5.583491,-4.22992 9.441174,-4.22992 2.323634,0 4.94538,0.2546 6.124919,0.7058 1.759643,0.8347 3.014926,1.44799 4.635991,2.75645 m -17.313666,12.54376 h -7.94741" inkscape:connector-curvature="0"/>
      <path embroider_zigzag_underlay="False" embroider_contour_underlay="False" embroider_center_walk_underlay_stitch_length_mm="1.5" embroider_center_walk_underlay="True" embroider_pull_compensation_mm="0.2" embroider_satin_column="True" embroider_zigzag_spacing_mm="0.4" id="path3259" style="font-style:normal;font-variant:normal;font-weight:normal;font-stretch:normal;font-size:106.66666412px;line-height:100%;font-family:sans-serif;-inkscape-font-specification:sans-serif;font-variant-ligatures:normal;font-variant-position:normal;font-variant-caps:normal;font-variant-numeric:normal;font-variant-alternates:normal;font-feature-settings:normal;text-indent:0;text-align:start;text-decoration:none;text-decoration-line:none;text-decoration-style:solid;text-decoration-color:#000000;letter-spacing:50px;word-spacing:0px;text-transform:none;writing-mode:lr-tb;direction:ltr;text-orientation:mixed;dominant-baseline:auto;baseline-shift:baseline;text-anchor:start;white-space:normal;shape-padding:0;fill:none;fill-opacity:1;stroke:#000000;stroke-width:0.64971524px;stroke-linecap:butt;stroke-linejoin:miter;stroke-miterlimit:4;stroke-dasharray:none;stroke-dashoffset:0;stroke-opacity:1" d="m 89.0152,853.33917 v 22.75315 c -0.03872,0.89259 0.542565,2.06052 1.51884,1.83906 2.575764,-0.68612 4.641273,-2.08181 6.196523,-4.18709 1.872447,-2.52667 2.808667,-5.78653 2.808667,-9.77957 M 84.176173,853.33917 v 2.78546 c -1.659204,7.71988 -1.43116,15.43976 0,23.15964 v 1.73039 c 0.06559,1.44551 0.724621,2.79573 2.044836,2.5477 5.349983,-0.52543 9.620191,-2.63969 12.810631,-5.68967 3.58697,-3.42905 5.38045,-8.11016 5.38045,-14.04333 m -22.234863,4.25893 h 8.179447 m -0.181758,8.49627 -6.399032,7.7937 m 11.362389,-10.82914 4.019912,5.66068" inkscape:connector-curvature="0" sodipodi:nodetypes="ccccccccccsccc"/>
    </g>
    
</svg>
