<?xml version="1.0" encoding="UTF-8" standalone="no"?>
<svg
>
<defs xmlns="http://www.w3.org/2000/svg" xmlns:dc="http://purl.org/dc/elements/1.1/" xmlns:cc="http://creativecommons.org/ns#" xmlns:rdf="http://www.w3.org/1999/02/22-rdf-syntax-ns#" xmlns:svg="http://www.w3.org/2000/svg" xmlns:sodipodi="http://sodipodi.sourceforge.net/DTD/sodipodi-0.dtd" xmlns:inkscape="http://www.inkscape.org/namespaces/inkscape" id="defs8377"/>
  
<g xmlns="http://www.w3.org/2000/svg" xmlns:inkscape="http://www.inkscape.org/namespaces/inkscape" xmlns:dc="http://purl.org/dc/elements/1.1/" xmlns:cc="http://creativecommons.org/ns#" xmlns:rdf="http://www.w3.org/1999/02/22-rdf-syntax-ns#" xmlns:svg="http://www.w3.org/2000/svg" xmlns:sodipodi="http://sodipodi.sourceforge.net/DTD/sodipodi-0.dtd" id="g2906" inkscape:label="_a">
      <path embroider_zigzag_underlay="False" embroider_contour_underlay="False" embroider_center_walk_underlay_stitch_length_mm="1.5" embroider_center_walk_underlay="True" embroider_pull_compensation_mm="0.2" embroider_satin_column="True" embroider_zigzag_spacing_mm="0.4" d="m 26.736174,42.142557 c 0.875333,-0.338001 1.724668,-0.589333 2.548001,-0.754002 0.823333,-0.173332 1.624998,-0.259998 2.404998,-0.259998 2.106,0 3.678999,0.546 4.719,1.638 0.854261,0.896972 1.357674,2.267062 1.510243,3.957433 M 26.736174,44.628328 c 0.846852,-0.440362 1.73231,-0.830334 2.683274,-1.073138 0.641664,-0.163832 1.313151,-0.260659 2.022726,-0.260747 1.308665,0 2.322665,0.303334 3.042,0.91 0.613891,0.514932 1.110395,1.493504 1.092,2.540698" style="font-style:normal;font-variant:normal;font-weight:normal;font-stretch:normal;font-size:106.66666412px;line-height:100%;font-family:sans-serif;-inkscape-font-specification:sans-serif;font-variant-ligatures:normal;font-variant-position:normal;font-variant-caps:normal;font-variant-numeric:normal;font-variant-alternates:normal;font-feature-settings:normal;text-indent:0;text-align:start;text-decoration:none;text-decoration-line:none;text-decoration-style:solid;text-decoration-color:#000000;letter-spacing:50px;word-spacing:0px;text-transform:none;writing-mode:lr-tb;direction:ltr;text-orientation:mixed;dominant-baseline:auto;baseline-shift:baseline;text-anchor:start;white-space:normal;shape-padding:0;fill:none;fill-opacity:1;stroke:#000000;stroke-width:0.5;stroke-linecap:butt;stroke-linejoin:miter;stroke-miterlimit:4;stroke-dasharray:none;stroke-dashoffset:0;stroke-opacity:1" id="path4609" inkscape:connector-curvature="0"/>
      <path d="m 35.576174,46.745141 c 0,0 -3.354,0 -3.354,0 -2.175219,-0.02236 -3.813334,0.657303 -4.914,1.4893 -1.092,0.832002 -1.638,2.066999 -1.638,3.705001 0,1.404 0.437666,2.526332 1.313,3.367001 0.884,0.832001 2.071334,1.248 3.562,1.248 1.809285,-0.01225 3.585431,-0.254861 4.868213,-1.703785 0.05519,-0.06234 0.426455,-0.524475 0.479779,-0.591353 m -0.316992,-5.400864 c 0,0 -2.379,0 -2.379,0 -1.932666,0 -3.271667,0.221 -4.017,0.662999 -0.745333,0.442 -1.118001,1.196003 -1.118001,2.262002 0,0.849335 0.277333,1.525333 0.832002,2.028 0.563332,0.494001 1.325997,0.741001 2.287998,0.741001 1.241318,0 2.250985,-0.410135 3.029006,-1.230401 0.05307,-0.05596 1.519023,-1.773669 1.569944,-1.833447 m -8.025424,4.790247 c 0,0 1.80375,-2.388753 1.80375,-2.388753 m -0.78,-6.751872 c 0,0 1.072501,2.510623 1.072501,2.510623 m 2.486248,7.605001 c 0,0 0.487501,-3.485626 0.487501,-3.485626" style="font-style:normal;font-variant:normal;font-weight:normal;font-stretch:normal;font-size:106.66666412px;line-height:100%;font-family:sans-serif;-inkscape-font-specification:sans-serif;font-variant-ligatures:normal;font-variant-position:normal;font-variant-caps:normal;font-variant-numeric:normal;font-variant-alternates:normal;font-feature-settings:normal;text-indent:0;text-align:start;text-decoration:none;text-decoration-line:none;text-decoration-style:solid;text-decoration-color:#000000;letter-spacing:50px;word-spacing:0px;text-transform:none;writing-mode:lr-tb;direction:ltr;text-orientation:mixed;dominant-baseline:auto;baseline-shift:baseline;text-anchor:start;white-space:normal;shape-padding:0;fill:none;fill-opacity:1;stroke:#000000;stroke-width:0.5;stroke-linecap:butt;stroke-linejoin:miter;stroke-miterlimit:4;stroke-dasharray:none;stroke-dashoffset:0;stroke-opacity:1" id="path847" embroider_zigzag_spacing_mm="0.4" embroider_satin_column="True" embroider_pull_compensation_mm="0.2" embroider_center_walk_underlay="True" embroider_center_walk_underlay_stitch_length_mm="1.5" embroider_contour_underlay="False" embroider_zigzag_underlay="False" inkscape:connector-curvature="0"/>
      <path id="path4622" d="m 36.67695,53.085713 c 0,0 0.02438,-5.508749 0.02438,-5.508749" style="opacity:1;vector-effect:none;fill:none;fill-opacity:1;fill-rule:evenodd;stroke:#000000;stroke-width:0.5;stroke-linecap:butt;stroke-linejoin:miter;stroke-miterlimit:4;stroke-dasharray:0.5, 0.5;stroke-dashoffset:0;stroke-opacity:1" embroider_running_stitch_length_mm="1.5" inkscape:connector-curvature="0"/>
      <path embroider_zigzag_underlay="False" embroider_contour_underlay="False" embroider_center_walk_underlay_stitch_length_mm="1.5" embroider_center_walk_underlay="True" embroider_pull_compensation_mm="0.2" embroider_satin_column="True" embroider_zigzag_spacing_mm="0.4" d="m 37.918416,46.72399 c 0.123434,3.075996 0.04976,6.299231 0.04976,9.453453 m -2.391999,-9.432302 c 0,0 0,9.432302 0,9.432302" style="font-style:normal;font-variant:normal;font-weight:normal;font-stretch:normal;font-size:106.66666412px;line-height:100%;font-family:sans-serif;-inkscape-font-specification:sans-serif;font-variant-ligatures:normal;font-variant-position:normal;font-variant-caps:normal;font-variant-numeric:normal;font-variant-alternates:normal;font-feature-settings:normal;text-indent:0;text-align:start;text-decoration:none;text-decoration-line:none;text-decoration-style:solid;text-decoration-color:#000000;letter-spacing:50px;word-spacing:0px;text-transform:none;writing-mode:lr-tb;direction:ltr;text-orientation:mixed;dominant-baseline:auto;baseline-shift:baseline;text-anchor:start;white-space:normal;shape-padding:0;fill:none;fill-opacity:1;stroke:#000000;stroke-width:0.5;stroke-linecap:butt;stroke-linejoin:miter;stroke-miterlimit:4;stroke-dasharray:none;stroke-dashoffset:0;stroke-opacity:1" id="path849" inkscape:connector-curvature="0"/>
    </g>
    
</svg>
