<?xml version="1.0" encoding="UTF-8" standalone="no"?>
<svg
>
<defs xmlns="http://www.w3.org/2000/svg" xmlns:dc="http://purl.org/dc/elements/1.1/" xmlns:cc="http://creativecommons.org/ns#" xmlns:rdf="http://www.w3.org/1999/02/22-rdf-syntax-ns#" xmlns:svg="http://www.w3.org/2000/svg" xmlns:sodipodi="http://sodipodi.sourceforge.net/DTD/sodipodi-0.dtd" xmlns:inkscape="http://www.inkscape.org/namespaces/inkscape" id="defs8377"/>
  
<g xmlns="http://www.w3.org/2000/svg" xmlns:inkscape="http://www.inkscape.org/namespaces/inkscape" xmlns:dc="http://purl.org/dc/elements/1.1/" xmlns:cc="http://creativecommons.org/ns#" xmlns:rdf="http://www.w3.org/1999/02/22-rdf-syntax-ns#" xmlns:svg="http://www.w3.org/2000/svg" xmlns:sodipodi="http://sodipodi.sourceforge.net/DTD/sodipodi-0.dtd" inkscape:label="_a" id="g2906" transform="matrix(0.65,0,0,0.65,-31.04856,-36.788448)">
      <path id="path4609" style="font-style:normal;font-variant:normal;font-weight:normal;font-stretch:normal;font-size:106.66666412px;line-height:100%;font-family:sans-serif;-inkscape-font-specification:sans-serif;font-variant-ligatures:normal;font-variant-position:normal;font-variant-caps:normal;font-variant-numeric:normal;font-variant-alternates:normal;font-feature-settings:normal;text-indent:0;text-align:start;text-decoration:none;text-decoration-line:none;text-decoration-style:solid;text-decoration-color:#000000;letter-spacing:50px;word-spacing:0px;text-transform:none;writing-mode:lr-tb;direction:ltr;text-orientation:mixed;dominant-baseline:auto;baseline-shift:baseline;text-anchor:start;white-space:normal;shape-padding:0;fill:none;fill-opacity:1;stroke:#000000;stroke-width:0.99999994px;stroke-linecap:butt;stroke-linejoin:miter;stroke-miterlimit:4;stroke-dasharray:none;stroke-dashoffset:0;stroke-opacity:1" d="m 95.427083,191.82027 c 3.506945,-1.35417 6.909727,-2.36111 10.208337,-3.02084 3.29861,-0.69444 6.51041,-1.04166 9.63541,-1.04166 8.4375,0 14.73958,2.1875 18.90625,6.5625 3.42252,3.59364 5.4394,9.08278 6.05065,15.8551 m -44.800647,-8.39608 c 3.392836,-1.76427 6.940347,-3.32666 10.750297,-4.29943 2.57077,-0.65638 5.26102,-1.04431 8.10387,-1.04466 5.24305,0 9.30555,1.21528 12.1875,3.64583 2.4595,2.06303 4.4487,5.98359 4.375,10.17908" inkscape:connector-curvature="0" sodipodi:nodetypes="ccssccsccc" embroider_zigzag_spacing_mm="0.4" embroider_satin_column="True" embroider_pull_compensation_mm="0.2" embroider_center_walk_underlay="True" embroider_center_walk_underlay_stitch_length_mm="1.5" embroider_contour_underlay="False" embroider_zigzag_underlay="False"/>
      <path embroider_zigzag_underlay="False" embroider_contour_underlay="False" embroider_center_walk_underlay_stitch_length_mm="1.5" embroider_center_walk_underlay="True" embroider_pull_compensation_mm="0.2" embroider_satin_column="True" embroider_zigzag_spacing_mm="0.4" id="path847" style="font-style:normal;font-variant:normal;font-weight:normal;font-stretch:normal;font-size:106.66666412px;line-height:100%;font-family:sans-serif;-inkscape-font-specification:sans-serif;font-variant-ligatures:normal;font-variant-position:normal;font-variant-caps:normal;font-variant-numeric:normal;font-variant-alternates:normal;font-feature-settings:normal;text-indent:0;text-align:start;text-decoration:none;text-decoration-line:none;text-decoration-style:solid;text-decoration-color:#000000;letter-spacing:50px;word-spacing:0px;text-transform:none;writing-mode:lr-tb;direction:ltr;text-orientation:mixed;dominant-baseline:auto;baseline-shift:baseline;text-anchor:start;white-space:normal;shape-padding:0;fill:none;fill-opacity:1;stroke:#000000;stroke-width:0.99999994px;stroke-linecap:butt;stroke-linejoin:miter;stroke-miterlimit:4;stroke-dasharray:none;stroke-dashoffset:0;stroke-opacity:1" d="m 130.84375,210.26011 h -13.4375 c -8.71482,-0.0896 -15.27778,2.63342 -19.6875,5.96675 -4.375,3.33333 -6.5625,8.28125 -6.5625,14.84375 0,5.625 1.753472,10.12153 5.260416,13.48959 3.541669,3.33333 8.298614,5 14.270834,5 7.24874,-0.0491 14.36471,-1.02108 19.50406,-6.82607 0.2211,-0.24975 1.70855,-2.10125 1.92219,-2.36919 m -1.27,-21.63808 h -9.53125 c -7.74305,0 -13.10764,0.88542 -16.09375,2.65625 -2.98611,1.77083 -4.47917,4.79167 -4.47917,9.0625 0,3.40278 1.11111,6.11111 3.33334,8.125 2.25694,1.97917 5.31249,2.96875 9.16666,2.96875 4.97323,0 9.01837,-1.64316 12.13544,-4.92948 0.21264,-0.22419 6.08583,-7.10606 6.28984,-7.34555 m -32.153141,19.19169 7.226561,-9.57031 m -3.125,-27.05078 4.29688,10.05859 m 9.96093,30.46875 1.95313,-13.96484" inkscape:connector-curvature="0" sodipodi:nodetypes="cccscccccssscscccccccc"/>
      <path embroider_running_stitch_length_mm="1.5" style="opacity:1;vector-effect:none;fill:none;fill-opacity:1;fill-rule:evenodd;stroke:#000000;stroke-width:1;stroke-linecap:butt;stroke-linejoin:miter;stroke-miterlimit:4;stroke-dasharray:1, 2;stroke-dashoffset:0;stroke-opacity:1" d="m 135.25391,235.66305 0.0977,-22.07031" id="path4622" inkscape:connector-curvature="0"/>
      <path sodipodi:nodetypes="cccc" id="path849" style="font-style:normal;font-variant:normal;font-weight:normal;font-stretch:normal;font-size:106.66666412px;line-height:100%;font-family:sans-serif;-inkscape-font-specification:sans-serif;font-variant-ligatures:normal;font-variant-position:normal;font-variant-caps:normal;font-variant-numeric:normal;font-variant-alternates:normal;font-feature-settings:normal;text-indent:0;text-align:start;text-decoration:none;text-decoration-line:none;text-decoration-style:solid;text-decoration-color:#000000;letter-spacing:50px;word-spacing:0px;text-transform:none;writing-mode:lr-tb;direction:ltr;text-orientation:mixed;dominant-baseline:auto;baseline-shift:baseline;text-anchor:start;white-space:normal;shape-padding:0;fill:none;fill-opacity:1;stroke:#000000;stroke-width:0.99999994px;stroke-linecap:butt;stroke-linejoin:miter;stroke-miterlimit:4;stroke-dasharray:none;stroke-dashoffset:0;stroke-opacity:1" d="m 140.22773,210.17537 c 0.49453,12.3237 0.19935,25.23731 0.19935,37.87441 m -9.58333,-37.78967 v 37.78967" inkscape:connector-curvature="0" embroider_zigzag_spacing_mm="0.4" embroider_satin_column="True" embroider_pull_compensation_mm="0.2" embroider_center_walk_underlay="True" embroider_center_walk_underlay_stitch_length_mm="1.5" embroider_contour_underlay="False" embroider_zigzag_underlay="False"/>
    </g>
    
</svg>
