<?xml version="1.0" encoding="UTF-8" standalone="no"?>
<svg
>
<defs xmlns="http://www.w3.org/2000/svg" xmlns:dc="http://purl.org/dc/elements/1.1/" xmlns:cc="http://creativecommons.org/ns#" xmlns:rdf="http://www.w3.org/1999/02/22-rdf-syntax-ns#" xmlns:svg="http://www.w3.org/2000/svg" xmlns:sodipodi="http://sodipodi.sourceforge.net/DTD/sodipodi-0.dtd" xmlns:inkscape="http://www.inkscape.org/namespaces/inkscape" id="defs8377"/>
  
<g xmlns="http://www.w3.org/2000/svg" xmlns:inkscape="http://www.inkscape.org/namespaces/inkscape" xmlns:dc="http://purl.org/dc/elements/1.1/" xmlns:cc="http://creativecommons.org/ns#" xmlns:rdf="http://www.w3.org/1999/02/22-rdf-syntax-ns#" xmlns:svg="http://www.w3.org/2000/svg" xmlns:sodipodi="http://sodipodi.sourceforge.net/DTD/sodipodi-0.dtd" inkscape:label="_c" id="g4912" transform="matrix(0.65,0,0,0.65,-31.04856,-36.788448)">
      <path sodipodi:nodetypes="ccccc" inkscape:connector-curvature="0" id="path4922" d="m 328.97039,222.47855 c -0.72978,-4.27427 0.28341,-8.67794 1.62831,-12.84365 1.22774,-5.17007 3.96754,-10.28144 8.8058,-12.87255 4.95787,-4.21521 11.77452,-4.72387 17.98479,-4.12697 3.93036,0.22341 7.27146,2.72855 11.21781,3.05045" style="opacity:1;vector-effect:none;fill:none;fill-opacity:1;fill-rule:evenodd;stroke:#000000;stroke-width:1;stroke-linecap:butt;stroke-linejoin:miter;stroke-miterlimit:4;stroke-dasharray:1, 2;stroke-dashoffset:0;stroke-opacity:1" embroider_running_stitch_length_mm="1.5"/>
      <path embroider_zigzag_underlay="False" embroider_contour_underlay="False" embroider_center_walk_underlay_stitch_length_mm="1.5" embroider_center_walk_underlay="True" embroider_pull_compensation_mm="0.2" embroider_satin_column="True" embroider_zigzag_spacing_mm="0.4" sodipodi:nodetypes="ccscsssccccscscscc" inkscape:connector-curvature="0" id="path9367" style="font-style:normal;font-variant:normal;font-weight:normal;font-stretch:normal;font-size:106.66666412px;line-height:100%;font-family:sans-serif;-inkscape-font-specification:sans-serif;font-variant-ligatures:normal;font-variant-position:normal;font-variant-caps:normal;font-variant-numeric:normal;font-variant-alternates:normal;font-feature-settings:normal;text-indent:0;text-align:start;text-decoration:none;text-decoration-line:none;text-decoration-style:solid;text-decoration-color:#000000;letter-spacing:50px;word-spacing:0px;text-transform:none;writing-mode:lr-tb;direction:ltr;text-orientation:mixed;dominant-baseline:auto;baseline-shift:baseline;text-anchor:start;white-space:normal;shape-padding:0;fill:none;fill-opacity:1;stroke:#000000;stroke-width:0.99999994px;stroke-linecap:butt;stroke-linejoin:miter;stroke-miterlimit:4;stroke-dasharray:none;stroke-dashoffset:0;stroke-opacity:1" d="m 369.90625,191.95603 c -2.63889,-1.21528 -5.36458,-2.11806 -8.17708,-2.70833 -2.8125,-0.625 -5.69445,-0.9375 -8.64584,-0.9375 -9.09722,0 -16.26736,2.72569 -21.51041,8.17708 -5.20833,5.45139 -7.8125,12.93403 -7.8125,22.44792 0,9.375 2.5868,16.82292 7.76041,22.34375 5.17361,5.52083 12.15278,8.28125 20.9375,8.28125 3.22917,0 6.26736,-0.3125 9.11459,-0.9375 2.88194,-0.625 5.65972,-1.5625 8.33333,-2.8125 m 0,-44.89584 c -2.70833,-1.49305 -5.43403,-2.60416 -8.17708,-3.33333 -2.70833,-0.76389 -5.45139,-1.14583 -8.22917,-1.14583 -6.21528,0 -11.04167,1.97917 -14.47917,5.9375 -3.4375,3.92361 -5.15625,9.44444 -5.15625,16.5625 0,7.11805 1.71875,12.65625 5.15625,16.61458 3.4375,3.92361 8.26389,5.88542 14.47917,5.88542 2.77778,0 5.52084,-0.36458 8.22917,-1.09375 2.74305,-0.76389 5.46875,-1.89237 8.17708,-3.38542"/>
    </g>
    
</svg>
