<?xml version="1.0" encoding="UTF-8" standalone="no"?>
<svg
>
<defs xmlns="http://www.w3.org/2000/svg" xmlns:dc="http://purl.org/dc/elements/1.1/" xmlns:cc="http://creativecommons.org/ns#" xmlns:rdf="http://www.w3.org/1999/02/22-rdf-syntax-ns#" xmlns:svg="http://www.w3.org/2000/svg" xmlns:sodipodi="http://sodipodi.sourceforge.net/DTD/sodipodi-0.dtd" xmlns:inkscape="http://www.inkscape.org/namespaces/inkscape" id="defs8377"/>
  
<g xmlns="http://www.w3.org/2000/svg" xmlns:inkscape="http://www.inkscape.org/namespaces/inkscape" xmlns:dc="http://purl.org/dc/elements/1.1/" xmlns:cc="http://creativecommons.org/ns#" xmlns:rdf="http://www.w3.org/1999/02/22-rdf-syntax-ns#" xmlns:svg="http://www.w3.org/2000/svg" xmlns:sodipodi="http://sodipodi.sourceforge.net/DTD/sodipodi-0.dtd" id="g4912" inkscape:label="_c">
      <path embroider_running_stitch_length_mm="1.5" style="opacity:1;vector-effect:none;fill:none;fill-opacity:1;fill-rule:evenodd;stroke:#000000;stroke-width:0.5;stroke-linecap:butt;stroke-linejoin:miter;stroke-miterlimit:4;stroke-dasharray:0.5, 0.5;stroke-dashoffset:0;stroke-opacity:1" d="m 85.028582,49.794864 c -0.18215,-1.06686 0.07074,-2.166014 0.406426,-3.205776 0.306447,-1.290449 0.990301,-2.566247 2.197927,-3.212988 1.237486,-1.052116 2.938921,-1.179078 4.489006,-1.030092 0.981017,0.05576 1.814957,0.681046 2.799963,0.761392" id="path4922" inkscape:connector-curvature="0"/>
      <path d="m 95.246173,42.176443 c -0.658668,-0.303335 -1.338996,-0.528668 -2.040998,-0.676 -0.701998,-0.156 -1.421334,-0.234 -2.158004,-0.234 -2.270665,0 -4.060331,0.680332 -5.368995,2.040999 -1.300002,1.360668 -1.950002,3.228334 -1.950002,5.603001 0,2.34 0.645665,4.199001 1.936999,5.577 1.291335,1.378 3.033335,2.067 5.225998,2.067 0.806001,0 1.564336,-0.078 2.275005,-0.233999 0.719331,-0.156 1.412666,-0.390001 2.079997,-0.702001 m 0,-11.206001 c -0.675997,-0.372666 -1.356334,-0.649999 -2.040998,-0.831999 -0.675998,-0.190667 -1.360666,-0.286 -2.054001,-0.286 -1.551333,0 -2.756003,0.494001 -3.614001,1.482 -0.858002,0.979333 -1.286999,2.357331 -1.286999,4.134 0,1.776664 0.428997,3.158999 1.286999,4.147 0.857998,0.979334 2.062668,1.469 3.614001,1.469 0.693335,0 1.378003,-0.091 2.054001,-0.273001 0.684664,-0.190664 1.365001,-0.472336 2.040998,-0.845" style="font-style:normal;font-variant:normal;font-weight:normal;font-stretch:normal;font-size:106.66666412px;line-height:100%;font-family:sans-serif;-inkscape-font-specification:sans-serif;font-variant-ligatures:normal;font-variant-position:normal;font-variant-caps:normal;font-variant-numeric:normal;font-variant-alternates:normal;font-feature-settings:normal;text-indent:0;text-align:start;text-decoration:none;text-decoration-line:none;text-decoration-style:solid;text-decoration-color:#000000;letter-spacing:50px;word-spacing:0px;text-transform:none;writing-mode:lr-tb;direction:ltr;text-orientation:mixed;dominant-baseline:auto;baseline-shift:baseline;text-anchor:start;white-space:normal;shape-padding:0;fill:none;fill-opacity:1;stroke:#000000;stroke-width:0.5;stroke-linecap:butt;stroke-linejoin:miter;stroke-miterlimit:4;stroke-dasharray:none;stroke-dashoffset:0;stroke-opacity:1" id="path9367" embroider_zigzag_spacing_mm="0.4" embroider_satin_column="True" embroider_pull_compensation_mm="0.2" embroider_center_walk_underlay="True" embroider_center_walk_underlay_stitch_length_mm="1.5" embroider_contour_underlay="False" embroider_zigzag_underlay="False" inkscape:connector-curvature="0"/>
    </g>
    
</svg>
