<?xml version="1.0" encoding="UTF-8" standalone="no"?>
<svg
>
<defs xmlns="http://www.w3.org/2000/svg" xmlns:dc="http://purl.org/dc/elements/1.1/" xmlns:cc="http://creativecommons.org/ns#" xmlns:rdf="http://www.w3.org/1999/02/22-rdf-syntax-ns#" xmlns:svg="http://www.w3.org/2000/svg" xmlns:sodipodi="http://sodipodi.sourceforge.net/DTD/sodipodi-0.dtd" xmlns:inkscape="http://www.inkscape.org/namespaces/inkscape" id="defs8377"/>
  
<g xmlns="http://www.w3.org/2000/svg" xmlns:inkscape="http://www.inkscape.org/namespaces/inkscape" xmlns:dc="http://purl.org/dc/elements/1.1/" xmlns:cc="http://creativecommons.org/ns#" xmlns:rdf="http://www.w3.org/1999/02/22-rdf-syntax-ns#" xmlns:svg="http://www.w3.org/2000/svg" xmlns:sodipodi="http://sodipodi.sourceforge.net/DTD/sodipodi-0.dtd" inkscape:label="_e" id="g5139" transform="matrix(0.65,0,0,0.7140493,-31.04856,-52.789449)">
      <path embroider_zigzag_underlay="False" embroider_contour_underlay="False" embroider_center_walk_underlay_stitch_length_mm="1.5" embroider_center_walk_underlay="True" embroider_pull_compensation_mm="0.2" embroider_satin_column="True" embroider_zigzag_spacing_mm="0.4" inkscape:connector-curvature="0" d="m 560.21873,222.42519 h 34.56758 m -34.25508,-7.4479 34.16667,-0.0521" style="font-style:normal;font-variant:normal;font-weight:normal;font-stretch:normal;font-size:106.66666412px;line-height:100%;font-family:sans-serif;-inkscape-font-specification:sans-serif;font-variant-ligatures:normal;font-variant-position:normal;font-variant-caps:normal;font-variant-numeric:normal;font-variant-alternates:normal;font-feature-settings:normal;text-indent:0;text-align:start;text-decoration:none;text-decoration-line:none;text-decoration-style:solid;text-decoration-color:#000000;letter-spacing:50px;word-spacing:0px;text-transform:none;writing-mode:lr-tb;direction:ltr;text-orientation:mixed;dominant-baseline:auto;baseline-shift:baseline;text-anchor:start;white-space:normal;shape-padding:0;fill:none;fill-opacity:1;stroke:#000000;stroke-width:0.99999994px;stroke-linecap:butt;stroke-linejoin:miter;stroke-miterlimit:4;stroke-dasharray:none;stroke-dashoffset:0;stroke-opacity:1" id="path6501" sodipodi:nodetypes="cccc"/>
      <path sodipodi:nodetypes="cscscscssccccsccccscccccc" id="path9371" style="font-style:normal;font-variant:normal;font-weight:normal;font-stretch:normal;font-size:106.66666412px;line-height:100%;font-family:sans-serif;-inkscape-font-specification:sans-serif;font-variant-ligatures:normal;font-variant-position:normal;font-variant-caps:normal;font-variant-numeric:normal;font-variant-alternates:normal;font-feature-settings:normal;text-indent:0;text-align:start;text-decoration:none;text-decoration-line:none;text-decoration-style:solid;text-decoration-color:#000000;letter-spacing:50px;word-spacing:0px;text-transform:none;writing-mode:lr-tb;direction:ltr;text-orientation:mixed;dominant-baseline:auto;baseline-shift:baseline;text-anchor:start;white-space:normal;shape-padding:0;fill:none;fill-opacity:1;stroke:#000000;stroke-width:0.99999994px;stroke-linecap:butt;stroke-linejoin:miter;stroke-miterlimit:4;stroke-dasharray:none;stroke-dashoffset:0;stroke-opacity:1" d="m 604.28123,220.0773 v -2.33963 c 0,-8.68055 -2.29167,-16.7886 -6.875,-21.82333 -4.54861,-5.06944 -10.74653,-7.60416 -18.59375,-7.60416 -8.75,0 -15.71181,2.8125 -20.88542,8.4375 -5.13889,5.59027 -7.70833,13.15972 -7.70833,22.70833 0,9.23611 2.70833,16.5625 8.125,21.97917 5.45139,5.41667 12.82986,8.125 22.13542,8.125 3.71527,0 7.37847,-0.38195 10.98958,-1.14584 3.61111,-0.76389 7.13542,-1.875 10.57291,-3.33333 m -7.34374,-24.82513 v -5.33069 c -0.0694,-5.24305 -1.54514,-10.67749 -4.42709,-13.80249 -2.84722,-3.125 -6.63194,-4.6875 -11.35416,-4.6875 -5.34723,0 -9.63542,1.51042 -12.86459,4.53125 -3.19444,3.02083 -5.03472,8.52471 -5.52083,14.01082 l -0.3125,7.44792 c 0.41667,6.59722 2.39583,10.38153 5.9375,13.85376 3.57639,3.4375 8.54166,5.15625 14.89583,5.15625 3.68056,0 7.23959,-0.45139 10.67709,-1.35417 3.47222,-0.90278 6.90972,-2.25695 10.31249,-4.0625 m -23.13539,-38.14845 -0.19531,-11.13281 m -6.9336,51.17187 -4.6875,11.91407" inkscape:connector-curvature="0" embroider_zigzag_spacing_mm="0.4" embroider_satin_column="True" embroider_pull_compensation_mm="0.2" embroider_center_walk_underlay="True" embroider_center_walk_underlay_stitch_length_mm="1.5" embroider_contour_underlay="False" embroider_zigzag_underlay="False"/>
    </g>
    
</svg>
