<?xml version="1.0" encoding="UTF-8" standalone="no"?>
<svg
>
<defs xmlns="http://www.w3.org/2000/svg" xmlns:dc="http://purl.org/dc/elements/1.1/" xmlns:cc="http://creativecommons.org/ns#" xmlns:rdf="http://www.w3.org/1999/02/22-rdf-syntax-ns#" xmlns:svg="http://www.w3.org/2000/svg" xmlns:sodipodi="http://sodipodi.sourceforge.net/DTD/sodipodi-0.dtd" xmlns:inkscape="http://www.inkscape.org/namespaces/inkscape" id="defs8377"/>
  
<g xmlns="http://www.w3.org/2000/svg" xmlns:inkscape="http://www.inkscape.org/namespaces/inkscape" xmlns:dc="http://purl.org/dc/elements/1.1/" xmlns:cc="http://creativecommons.org/ns#" xmlns:rdf="http://www.w3.org/1999/02/22-rdf-syntax-ns#" xmlns:svg="http://www.w3.org/2000/svg" xmlns:sodipodi="http://sodipodi.sourceforge.net/DTD/sodipodi-0.dtd" id="g5139" inkscape:label="_e">
      <path id="path6501" style="font-style:normal;font-variant:normal;font-weight:normal;font-stretch:normal;font-size:106.66666412px;line-height:100%;font-family:sans-serif;-inkscape-font-specification:sans-serif;font-variant-ligatures:normal;font-variant-position:normal;font-variant-caps:normal;font-variant-numeric:normal;font-variant-alternates:normal;font-feature-settings:normal;text-indent:0;text-align:start;text-decoration:none;text-decoration-line:none;text-decoration-style:solid;text-decoration-color:#000000;letter-spacing:50px;word-spacing:0px;text-transform:none;writing-mode:lr-tb;direction:ltr;text-orientation:mixed;dominant-baseline:auto;baseline-shift:baseline;text-anchor:start;white-space:normal;shape-padding:0;fill:none;fill-opacity:1;stroke:#000000;stroke-width:0.5;stroke-linecap:butt;stroke-linejoin:miter;stroke-miterlimit:4;stroke-dasharray:none;stroke-dashoffset:0;stroke-opacity:1" d="m 142.74817,49.107692 c 0,0 8.62807,0 8.62807,0 m -8.55007,-2.042177 c 0,0 8.528,-0.01429 8.528,-0.01429" embroider_zigzag_spacing_mm="0.4" embroider_satin_column="True" embroider_pull_compensation_mm="0.2" embroider_center_walk_underlay="True" embroider_center_walk_underlay_stitch_length_mm="1.5" embroider_contour_underlay="False" embroider_zigzag_underlay="False" inkscape:connector-curvature="0"/>
      <path embroider_zigzag_underlay="False" embroider_contour_underlay="False" embroider_center_walk_underlay_stitch_length_mm="1.5" embroider_center_walk_underlay="True" embroider_pull_compensation_mm="0.2" embroider_satin_column="True" embroider_zigzag_spacing_mm="0.4" d="m 153.74617,48.463912 c 0,0 0,-0.641514 0,-0.641514 0,-2.380162 -0.572,-4.603349 -1.716,-5.983846 -1.13534,-1.390015 -2.68234,-2.085022 -4.641,-2.085022 -2.184,0 -3.92167,0.771173 -5.213,2.313519 -1.28267,1.532824 -1.924,3.608329 -1.924,6.226509 0,2.532495 0.676,4.541353 2.028,6.026577 1.36067,1.485223 3.20233,2.227833 5.525,2.227833 0.92733,0 1.84166,-0.104728 2.743,-0.314181 0.90133,-0.209456 1.781,-0.514118 2.639,-0.913985 m -1.833,-6.806922 c 0,0 0,-1.46165 0,-1.46165 -0.0173,-1.437617 -0.38567,-2.927713 -1.105,-3.784572 -0.71067,-0.856859 -1.65533,-1.285289 -2.834,-1.285289 -1.33467,0 -2.405,0.414149 -3.211,1.242446 -0.79734,0.828296 -1.25667,2.337432 -1.378,3.841696 0,0 -0.078,2.042181 -0.078,2.042181 0.104,1.808924 0.598,2.846565 1.482,3.798631 0.89266,0.942544 2.132,1.413819 3.718,1.413819 0.91866,0 1.807,-0.123771 2.665,-0.371308 0.86667,-0.247538 1.72467,-0.618843 2.574,-1.113915 m -5.7746,-10.460113 c 0,0 -0.0487,-3.05256 -0.0487,-3.05256 m -1.73062,14.031069 c 0,0 -1.17,3.266776 -1.17,3.266776" style="font-style:normal;font-variant:normal;font-weight:normal;font-stretch:normal;font-size:106.66666412px;line-height:100%;font-family:sans-serif;-inkscape-font-specification:sans-serif;font-variant-ligatures:normal;font-variant-position:normal;font-variant-caps:normal;font-variant-numeric:normal;font-variant-alternates:normal;font-feature-settings:normal;text-indent:0;text-align:start;text-decoration:none;text-decoration-line:none;text-decoration-style:solid;text-decoration-color:#000000;letter-spacing:50px;word-spacing:0px;text-transform:none;writing-mode:lr-tb;direction:ltr;text-orientation:mixed;dominant-baseline:auto;baseline-shift:baseline;text-anchor:start;white-space:normal;shape-padding:0;fill:none;fill-opacity:1;stroke:#000000;stroke-width:0.5;stroke-linecap:butt;stroke-linejoin:miter;stroke-miterlimit:4;stroke-dasharray:none;stroke-dashoffset:0;stroke-opacity:1" id="path9371" inkscape:connector-curvature="0"/>
    </g>
    
</svg>
