<?xml version="1.0" encoding="UTF-8" standalone="no"?>
<svg
>
<defs xmlns="http://www.w3.org/2000/svg" xmlns:dc="http://purl.org/dc/elements/1.1/" xmlns:cc="http://creativecommons.org/ns#" xmlns:rdf="http://www.w3.org/1999/02/22-rdf-syntax-ns#" xmlns:svg="http://www.w3.org/2000/svg" xmlns:sodipodi="http://sodipodi.sourceforge.net/DTD/sodipodi-0.dtd" xmlns:inkscape="http://www.inkscape.org/namespaces/inkscape" id="defs8377"/>
  
<g xmlns="http://www.w3.org/2000/svg" xmlns:inkscape="http://www.inkscape.org/namespaces/inkscape" xmlns:dc="http://purl.org/dc/elements/1.1/" xmlns:cc="http://creativecommons.org/ns#" xmlns:rdf="http://www.w3.org/1999/02/22-rdf-syntax-ns#" xmlns:svg="http://www.w3.org/2000/svg" xmlns:sodipodi="http://sodipodi.sourceforge.net/DTD/sodipodi-0.dtd" id="g6091" inkscape:label="_g" transform="matrix(0.65,0,0,0.65,-31.04856,-36.788448)">
      <path id="path6095" style="font-style:normal;font-variant:normal;font-weight:normal;font-stretch:normal;font-size:106.66666412px;line-height:100%;font-family:sans-serif;-inkscape-font-specification:sans-serif;font-variant-ligatures:normal;font-variant-position:normal;font-variant-caps:normal;font-variant-numeric:normal;font-variant-alternates:normal;font-feature-settings:normal;text-indent:0;text-align:start;text-decoration:none;text-decoration-line:none;text-decoration-style:solid;text-decoration-color:#000000;letter-spacing:50px;word-spacing:0px;text-transform:none;writing-mode:lr-tb;direction:ltr;text-orientation:mixed;dominant-baseline:auto;baseline-shift:baseline;text-anchor:start;white-space:normal;shape-padding:0;fill:none;fill-opacity:1;stroke:#000000;stroke-width:0.99999994px;stroke-linecap:butt;stroke-linejoin:miter;stroke-miterlimit:4;stroke-dasharray:none;stroke-dashoffset:0;stroke-opacity:1" d="m 760.37498,270.43389 c 2.8125,1.04167 5.71181,1.80556 8.69792,2.29167 2.98611,0.52083 6.16319,0.78125 9.53125,0.78125 9.09722,0 15.85069,-2.43056 20.26041,-7.29167 3.77528,-4.132 5.9345,-12.53098 6.47766,-21.09365 0.0913,-1.43897 0.13692,-2.88255 0.13692,-4.31129 m -45.10416,19.03125 c 2.8125,1.52777 5.59028,2.26562 8.33333,2.99478 2.74306,0.72917 5.5382,1.09375 8.38542,1.09375 6.28472,0 10.98958,-1.25867 14.11458,-4.55728 3.125,-3.26389 4.6875,-7.67275 4.6875,-14.30469 v -4.6198" inkscape:connector-curvature="0" embroider_zigzag_spacing_mm="0.4" embroider_satin_column="True" embroider_pull_compensation_mm="0.2" embroider_center_walk_underlay="True" embroider_center_walk_underlay_stitch_length_mm="1.5" embroider_contour_underlay="False" embroider_zigzag_underlay="False"/>
      <path id="path9375" style="font-style:normal;font-variant:normal;font-weight:normal;font-stretch:normal;font-size:106.66666412px;line-height:100%;font-family:sans-serif;-inkscape-font-specification:sans-serif;font-variant-ligatures:normal;font-variant-position:normal;font-variant-caps:normal;font-variant-numeric:normal;font-variant-alternates:normal;font-feature-settings:normal;text-indent:0;text-align:start;text-decoration:none;text-decoration-line:none;text-decoration-style:solid;text-decoration-color:#000000;letter-spacing:50px;word-spacing:0px;text-transform:none;writing-mode:lr-tb;direction:ltr;text-orientation:mixed;dominant-baseline:auto;baseline-shift:baseline;text-anchor:start;white-space:normal;shape-padding:0;fill:none;fill-opacity:1;stroke:#000000;stroke-width:0.99999994px;stroke-linecap:butt;stroke-linejoin:miter;stroke-miterlimit:4;stroke-dasharray:none;stroke-dashoffset:0;stroke-opacity:1" d="m 795.89581,240.32842 c -4.15144,7.09574 -11.53097,8.74124 -18.69791,8.79558 -7.15278,0 -12.91667,-3.79991 -17.29167,-9.2513 -4.375,-5.45139 -6.5625,-12.67362 -6.5625,-21.66667 0,-9.02778 2.1875,-16.26736 6.5625,-21.71875 4.375,-5.45139 10.13889,-8.17708 17.29167,-8.17708 4.30555,0 8.00347,0.85069 11.09375,2.55208 3.09027,1.70139 5.03905,2.90364 7.60416,5.95051 m -0.23397,27.36602 c -1.52861,8.43054 -8.70438,15.09139 -16.11941,15.19676 -4.98522,0 -8.87571,-1.85261 -11.67147,-5.55784 -2.76208,-3.70523 -4.14312,-8.90939 -4.14312,-15.61248 0,-6.73678 1.38104,-11.95778 4.14312,-15.663 2.79576,-3.70523 6.68625,-4.9719 11.67147,-4.9719 5.0189,0 8.90938,1.85261 11.67146,5.55784 1.72326,2.28383 3.59902,4.92094 4.26009,8.18576 m -13.44426,26.28729 -0.8977,14.29406 m -15.67512,-33.62901 -13.46541,-0.13811 m 26.44745,-18.64441 -0.82864,-12.08435" inkscape:connector-curvature="0" sodipodi:nodetypes="ccsssscccccscscc" embroider_zigzag_spacing_mm="0.4" embroider_satin_column="True" embroider_pull_compensation_mm="0.2" embroider_center_walk_underlay="True" embroider_center_walk_underlay_stitch_length_mm="1.5" embroider_contour_underlay="False" embroider_zigzag_underlay="False"/>
      <path id="path6103" style="font-style:normal;font-variant:normal;font-weight:normal;font-stretch:normal;font-size:106.66666412px;line-height:100%;font-family:sans-serif;-inkscape-font-specification:sans-serif;font-variant-ligatures:normal;font-variant-position:normal;font-variant-caps:normal;font-variant-numeric:normal;font-variant-alternates:normal;font-feature-settings:normal;text-indent:0;text-align:start;text-decoration:none;text-decoration-line:none;text-decoration-style:solid;text-decoration-color:#000000;letter-spacing:50px;word-spacing:0px;text-transform:none;writing-mode:lr-tb;direction:ltr;text-orientation:mixed;dominant-baseline:auto;baseline-shift:baseline;text-anchor:start;white-space:normal;shape-padding:0;fill:none;fill-opacity:1;stroke:#000000;stroke-width:0.99999994px;stroke-linecap:butt;stroke-linejoin:miter;stroke-miterlimit:4;stroke-dasharray:none;stroke-dashoffset:0;stroke-opacity:1" d="m 805.47914,189.71645 v 51.09375 m -9.58333,-51.09375 c 0,16.91059 0,33.82117 0,50.73176" inkscape:connector-curvature="0" sodipodi:nodetypes="cccc" embroider_zigzag_spacing_mm="0.4" embroider_satin_column="True" embroider_pull_compensation_mm="0.2" embroider_center_walk_underlay="True" embroider_center_walk_underlay_stitch_length_mm="1.5" embroider_contour_underlay="False" embroider_zigzag_underlay="False"/>
    </g>
    
</svg>
