<?xml version="1.0" encoding="UTF-8" standalone="no"?>
<svg
>
<defs xmlns="http://www.w3.org/2000/svg" xmlns:dc="http://purl.org/dc/elements/1.1/" xmlns:cc="http://creativecommons.org/ns#" xmlns:rdf="http://www.w3.org/1999/02/22-rdf-syntax-ns#" xmlns:svg="http://www.w3.org/2000/svg" xmlns:sodipodi="http://sodipodi.sourceforge.net/DTD/sodipodi-0.dtd" xmlns:inkscape="http://www.inkscape.org/namespaces/inkscape" id="defs8377"/>
  
<g xmlns="http://www.w3.org/2000/svg" xmlns:inkscape="http://www.inkscape.org/namespaces/inkscape" xmlns:dc="http://purl.org/dc/elements/1.1/" xmlns:cc="http://creativecommons.org/ns#" xmlns:rdf="http://www.w3.org/1999/02/22-rdf-syntax-ns#" xmlns:svg="http://www.w3.org/2000/svg" xmlns:sodipodi="http://sodipodi.sourceforge.net/DTD/sodipodi-0.dtd" inkscape:label="_g" id="g6091">
      <path embroider_zigzag_underlay="False" embroider_contour_underlay="False" embroider_center_walk_underlay_stitch_length_mm="1.5" embroider_center_walk_underlay="True" embroider_pull_compensation_mm="0.2" embroider_satin_column="True" embroider_zigzag_spacing_mm="0.4" d="m 192.70717,61.764516 c 0.702,0.260003 1.42567,0.450666 2.171,0.572003 0.74533,0.129999 1.53833,0.194999 2.379,0.194999 2.27067,0 3.95633,-0.60667 5.057,-1.820003 0.94231,-1.031347 1.48125,-3.12773 1.61682,-5.264974 0.0228,-0.359167 0.0342,-0.719485 0.0342,-1.076098 m -11.258,4.750199 c 0.702,0.381331 1.39533,0.565501 2.08,0.747498 0.68467,0.182 1.38233,0.273001 2.093,0.273001 1.56866,0 2.743,-0.314166 3.523,-1.137497 0.78,-0.814667 1.17,-1.915119 1.17,-3.570451 0,0 0,-1.153102 0,-1.153102" style="font-style:normal;font-variant:normal;font-weight:normal;font-stretch:normal;font-size:106.66666412px;line-height:100%;font-family:sans-serif;-inkscape-font-specification:sans-serif;font-variant-ligatures:normal;font-variant-position:normal;font-variant-caps:normal;font-variant-numeric:normal;font-variant-alternates:normal;font-feature-settings:normal;text-indent:0;text-align:start;text-decoration:none;text-decoration-line:none;text-decoration-style:solid;text-decoration-color:#000000;letter-spacing:50px;word-spacing:0px;text-transform:none;writing-mode:lr-tb;direction:ltr;text-orientation:mixed;dominant-baseline:auto;baseline-shift:baseline;text-anchor:start;white-space:normal;shape-padding:0;fill:none;fill-opacity:1;stroke:#000000;stroke-width:0.5;stroke-linecap:butt;stroke-linejoin:miter;stroke-miterlimit:4;stroke-dasharray:none;stroke-dashoffset:0;stroke-opacity:1" id="path6095" inkscape:connector-curvature="0"/>
      <path embroider_zigzag_underlay="False" embroider_contour_underlay="False" embroider_center_walk_underlay_stitch_length_mm="1.5" embroider_center_walk_underlay="True" embroider_pull_compensation_mm="0.2" embroider_satin_column="True" embroider_zigzag_spacing_mm="0.4" d="m 201.57317,54.250193 c -1.0362,1.771096 -2.87813,2.181811 -4.667,2.195374 -1.78533,0 -3.224,-0.948457 -4.316,-2.309123 -1.092,-1.360669 -1.638,-3.163338 -1.638,-5.408002 0,-2.253334 0.546,-4.060332 1.638,-5.421 1.092,-1.360667 2.53067,-2.040999 4.316,-2.040999 1.07466,0 1.99767,0.212332 2.769,0.636999 0.77133,0.424668 1.25774,0.724749 1.898,1.485248 m -0.0584,6.830559 c -0.38154,2.104262 -2.17261,3.76681 -4.02341,3.79311 -1.24431,0 -2.21537,-0.462409 -2.9132,-1.387235 -0.68941,-0.924825 -1.03412,-2.223786 -1.03412,-3.896878 0,-1.681498 0.34471,-2.98466 1.03412,-3.909483 0.69783,-0.924825 1.66889,-1.240986 2.9132,-1.240986 1.25272,0 2.22379,0.462411 2.9132,1.387237 0.43013,0.570044 0.89832,1.228266 1.06332,2.043165 m -3.35569,6.561309 c 0,0 -0.22407,3.567797 -0.22407,3.567797 m -3.91251,-8.393802 c 0,0 -3.36096,-0.03448 -3.36096,-0.03448 m 6.60128,-4.653645 c 0,0 -0.20682,-3.016254 -0.20682,-3.016254" style="font-style:normal;font-variant:normal;font-weight:normal;font-stretch:normal;font-size:106.66666412px;line-height:100%;font-family:sans-serif;-inkscape-font-specification:sans-serif;font-variant-ligatures:normal;font-variant-position:normal;font-variant-caps:normal;font-variant-numeric:normal;font-variant-alternates:normal;font-feature-settings:normal;text-indent:0;text-align:start;text-decoration:none;text-decoration-line:none;text-decoration-style:solid;text-decoration-color:#000000;letter-spacing:50px;word-spacing:0px;text-transform:none;writing-mode:lr-tb;direction:ltr;text-orientation:mixed;dominant-baseline:auto;baseline-shift:baseline;text-anchor:start;white-space:normal;shape-padding:0;fill:none;fill-opacity:1;stroke:#000000;stroke-width:0.5;stroke-linecap:butt;stroke-linejoin:miter;stroke-miterlimit:4;stroke-dasharray:none;stroke-dashoffset:0;stroke-opacity:1" id="path9375" inkscape:connector-curvature="0"/>
      <path embroider_zigzag_underlay="False" embroider_contour_underlay="False" embroider_center_walk_underlay_stitch_length_mm="1.5" embroider_center_walk_underlay="True" embroider_pull_compensation_mm="0.2" embroider_satin_column="True" embroider_zigzag_spacing_mm="0.4" d="m 203.96517,41.617443 c 0,0 0,12.753 0,12.753 m -2.392,-12.753 c 0,4.220884 0,8.441762 0,12.662648" style="font-style:normal;font-variant:normal;font-weight:normal;font-stretch:normal;font-size:106.66666412px;line-height:100%;font-family:sans-serif;-inkscape-font-specification:sans-serif;font-variant-ligatures:normal;font-variant-position:normal;font-variant-caps:normal;font-variant-numeric:normal;font-variant-alternates:normal;font-feature-settings:normal;text-indent:0;text-align:start;text-decoration:none;text-decoration-line:none;text-decoration-style:solid;text-decoration-color:#000000;letter-spacing:50px;word-spacing:0px;text-transform:none;writing-mode:lr-tb;direction:ltr;text-orientation:mixed;dominant-baseline:auto;baseline-shift:baseline;text-anchor:start;white-space:normal;shape-padding:0;fill:none;fill-opacity:1;stroke:#000000;stroke-width:0.5;stroke-linecap:butt;stroke-linejoin:miter;stroke-miterlimit:4;stroke-dasharray:none;stroke-dashoffset:0;stroke-opacity:1" id="path6103" inkscape:connector-curvature="0"/>
    </g>
    
</svg>
