<?xml version="1.0" encoding="UTF-8" standalone="no"?>
<svg
>
<defs xmlns="http://www.w3.org/2000/svg" xmlns:dc="http://purl.org/dc/elements/1.1/" xmlns:cc="http://creativecommons.org/ns#" xmlns:rdf="http://www.w3.org/1999/02/22-rdf-syntax-ns#" xmlns:svg="http://www.w3.org/2000/svg" xmlns:sodipodi="http://sodipodi.sourceforge.net/DTD/sodipodi-0.dtd" xmlns:inkscape="http://www.inkscape.org/namespaces/inkscape" id="defs8377"/>
  
<g xmlns="http://www.w3.org/2000/svg" xmlns:inkscape="http://www.inkscape.org/namespaces/inkscape" xmlns:dc="http://purl.org/dc/elements/1.1/" xmlns:cc="http://creativecommons.org/ns#" xmlns:rdf="http://www.w3.org/1999/02/22-rdf-syntax-ns#" xmlns:svg="http://www.w3.org/2000/svg" xmlns:sodipodi="http://sodipodi.sourceforge.net/DTD/sodipodi-0.dtd" inkscape:label="_o" id="g13052">
      <path embroider_running_stitch_length_mm="1.5" id="path13054" d="m 167.58893,88.562467 c -0.20466,-2.149352 0.70425,-4.526343 2.49111,-5.768398 0.648,-0.443171 1.38923,-0.837566 2.17511,-0.853033 1.51528,-0.208489 3.2061,0.08014 4.34197,1.128019 1.04862,0.925997 1.6726,2.280941 1.77412,3.668172 0.17502,0.686023 0.28607,1.391708 0.28305,2.101013" style="opacity:1;vector-effect:none;fill:none;fill-opacity:1;fill-rule:evenodd;stroke:#000000;stroke-width:0.5;stroke-linecap:butt;stroke-linejoin:miter;stroke-miterlimit:4;stroke-dasharray:0.5, 0.5;stroke-dashoffset:0;stroke-opacity:1" inkscape:connector-curvature="0"/>
      <path embroider_zigzag_underlay="False" embroider_contour_underlay="False" embroider_center_walk_underlay_stitch_length_mm="1.5" embroider_center_walk_underlay="True" embroider_pull_compensation_mm="0.2" embroider_satin_column="True" embroider_zigzag_spacing_mm="0.4" d="m 177.21636,88.468794 c 0,1.733334 -0.37266,3.102666 -1.118,4.107997 -0.74533,1.005335 -1.75499,1.410501 -3.02899,1.410501 -1.29134,0 -2.30967,-0.40083 -3.05501,-1.397498 -0.73666,-1.005335 -1.10499,-2.378999 -1.10499,-4.121 0,-1.742001 0.37266,-3.111333 1.118,-4.108001 0.74533,-1.005332 1.75933,-1.410498 3.042,-1.410498 1.274,0 2.28366,0.409498 3.02899,1.4235 0.74534,1.005331 1.118,2.370332 1.118,4.094999 m 2.53501,0 c 0,2.383334 -0.59367,4.255334 -1.78101,5.616 -1.18733,1.351999 -2.82099,2.028 -4.90099,2.028 -2.08867,0 -3.72667,-0.676001 -4.914,-2.028 -1.17867,-1.360666 -1.76801,-3.232666 -1.76801,-5.616 0,-2.392001 0.58934,-4.264001 1.76801,-5.616 1.18733,-1.351999 2.82533,-2.028 4.914,-2.028 2.08,0 3.71366,0.676001 4.90099,2.028 1.18734,1.351999 1.78101,3.223999 1.78101,5.616" style="font-style:normal;font-variant:normal;font-weight:normal;font-stretch:normal;font-size:106.66666412px;line-height:100%;font-family:sans-serif;-inkscape-font-specification:sans-serif;font-variant-ligatures:normal;font-variant-position:normal;font-variant-caps:normal;font-variant-numeric:normal;font-variant-alternates:normal;font-feature-settings:normal;text-indent:0;text-align:start;text-decoration:none;text-decoration-line:none;text-decoration-style:solid;text-decoration-color:#000000;letter-spacing:50px;word-spacing:0px;text-transform:none;writing-mode:lr-tb;direction:ltr;text-orientation:mixed;dominant-baseline:auto;baseline-shift:baseline;text-anchor:start;white-space:normal;shape-padding:0;fill:none;fill-opacity:1;stroke:#000000;stroke-width:0.5;stroke-linecap:butt;stroke-linejoin:miter;stroke-miterlimit:4;stroke-dasharray:none;stroke-dashoffset:0;stroke-opacity:1" id="path9391" inkscape:connector-curvature="0"/>
    </g>
    
</svg>
