<?xml version="1.0" encoding="UTF-8" standalone="no"?>
<svg
>
<defs xmlns="http://www.w3.org/2000/svg" xmlns:dc="http://purl.org/dc/elements/1.1/" xmlns:cc="http://creativecommons.org/ns#" xmlns:rdf="http://www.w3.org/1999/02/22-rdf-syntax-ns#" xmlns:svg="http://www.w3.org/2000/svg" xmlns:sodipodi="http://sodipodi.sourceforge.net/DTD/sodipodi-0.dtd" xmlns:inkscape="http://www.inkscape.org/namespaces/inkscape" id="defs8377"/>
  
<g xmlns="http://www.w3.org/2000/svg" xmlns:inkscape="http://www.inkscape.org/namespaces/inkscape" xmlns:dc="http://purl.org/dc/elements/1.1/" xmlns:cc="http://creativecommons.org/ns#" xmlns:rdf="http://www.w3.org/1999/02/22-rdf-syntax-ns#" xmlns:svg="http://www.w3.org/2000/svg" xmlns:sodipodi="http://sodipodi.sourceforge.net/DTD/sodipodi-0.dtd" id="g13052" inkscape:label="_o" transform="matrix(0.65,0,0,0.65,-68.748555,-45.888448)">
      <path style="opacity:1;vector-effect:none;fill:none;fill-opacity:1;fill-rule:evenodd;stroke:#000000;stroke-width:1;stroke-linecap:butt;stroke-linejoin:miter;stroke-miterlimit:4;stroke-dasharray:1, 2;stroke-dashoffset:0;stroke-opacity:1" d="m 717.74101,391.79748 c -0.81995,-8.61119 2.82149,-18.13439 9.98042,-23.11058 2.59613,-1.77552 5.56583,-3.35563 8.71434,-3.41759 6.07084,-0.8353 12.84496,0.32106 17.39574,4.5193 4.20119,3.70993 6.70112,9.13838 7.10785,14.69621 0.70119,2.74849 1.14609,5.57574 1.13402,8.41751" id="path13054" inkscape:connector-curvature="0" sodipodi:nodetypes="cccccc" embroider_running_stitch_length_mm="1.5"/>
      <path sodipodi:nodetypes="ccscscsccccscscssc" inkscape:connector-curvature="0" id="path9391" style="font-style:normal;font-variant:normal;font-weight:normal;font-stretch:normal;font-size:106.66666412px;line-height:100%;font-family:sans-serif;-inkscape-font-specification:sans-serif;font-variant-ligatures:normal;font-variant-position:normal;font-variant-caps:normal;font-variant-numeric:normal;font-variant-alternates:normal;font-feature-settings:normal;text-indent:0;text-align:start;text-decoration:none;text-decoration-line:none;text-decoration-style:solid;text-decoration-color:#000000;letter-spacing:50px;word-spacing:0px;text-transform:none;writing-mode:lr-tb;direction:ltr;text-orientation:mixed;dominant-baseline:auto;baseline-shift:baseline;text-anchor:start;white-space:normal;shape-padding:0;fill:none;fill-opacity:1;stroke:#000000;stroke-width:0.99999994px;stroke-linecap:butt;stroke-linejoin:miter;stroke-miterlimit:4;stroke-dasharray:none;stroke-dashoffset:0;stroke-opacity:1" d="m 756.31246,391.42218 c 0,6.94445 -1.49306,12.43056 -4.47917,16.45833 -2.98611,4.02778 -7.03124,5.65104 -12.13541,5.65104 -5.17361,0 -9.25348,-1.60589 -12.23959,-5.59895 -2.95139,-4.02778 -4.42708,-9.53125 -4.42708,-16.51042 0,-6.97916 1.49306,-12.46527 4.47917,-16.45833 2.98611,-4.02778 7.04861,-5.65104 12.1875,-5.65104 5.10417,0 9.1493,1.64062 12.13541,5.70312 2.98611,4.02778 4.47917,9.49653 4.47917,16.40625 m 10.15625,0 c 0,9.54862 -2.37847,17.04862 -7.13542,22.5 -4.75695,5.41667 -11.30208,8.125 -19.63541,8.125 -8.36806,0 -14.93056,-2.70833 -19.6875,-8.125 -4.72223,-5.45138 -7.08334,-12.95138 -7.08334,-22.5 0,-9.58333 2.36111,-17.08333 7.08334,-22.5 4.75694,-5.41666 11.31944,-8.125 19.6875,-8.125 8.33333,0 14.87846,2.70834 19.63541,8.125 4.75695,5.41667 7.13542,12.91667 7.13542,22.5" embroider_zigzag_spacing_mm="0.4" embroider_satin_column="True" embroider_pull_compensation_mm="0.2" embroider_center_walk_underlay="True" embroider_center_walk_underlay_stitch_length_mm="1.5" embroider_contour_underlay="False" embroider_zigzag_underlay="False"/>
    </g>
    
</svg>
