<?xml version="1.0" encoding="UTF-8" standalone="no"?>
<svg
>
<defs xmlns="http://www.w3.org/2000/svg" xmlns:dc="http://purl.org/dc/elements/1.1/" xmlns:cc="http://creativecommons.org/ns#" xmlns:rdf="http://www.w3.org/1999/02/22-rdf-syntax-ns#" xmlns:svg="http://www.w3.org/2000/svg" xmlns:sodipodi="http://sodipodi.sourceforge.net/DTD/sodipodi-0.dtd" xmlns:inkscape="http://www.inkscape.org/namespaces/inkscape" id="defs8377"/>
  
<g xmlns="http://www.w3.org/2000/svg" xmlns:inkscape="http://www.inkscape.org/namespaces/inkscape" xmlns:dc="http://purl.org/dc/elements/1.1/" xmlns:cc="http://creativecommons.org/ns#" xmlns:rdf="http://www.w3.org/1999/02/22-rdf-syntax-ns#" xmlns:svg="http://www.w3.org/2000/svg" xmlns:sodipodi="http://sodipodi.sourceforge.net/DTD/sodipodi-0.dtd" id="g13725" inkscape:label="_q">
      <path embroider_running_stitch_length_mm="1.5" id="path18641" d="m 223.68492,88.312329 c 0.11307,2.377993 0.78958,5.239972 3.12547,6.365649 2.45435,1.301357 5.51891,-0.296483 6.1439,-1.436398" style="opacity:1;vector-effect:none;fill:none;fill-opacity:1;fill-rule:evenodd;stroke:#000000;stroke-width:0.5;stroke-linecap:butt;stroke-linejoin:miter;stroke-miterlimit:4;stroke-dasharray:0.5, 0.5;stroke-dashoffset:0;stroke-opacity:1" inkscape:connector-curvature="0"/>
      <path embroider_zigzag_underlay="False" embroider_contour_underlay="False" embroider_center_walk_underlay_stitch_length_mm="1.5" embroider_center_walk_underlay="True" embroider_pull_compensation_mm="0.2" embroider_satin_column="True" embroider_zigzag_spacing_mm="0.4" d="m 233.18416,90.446824 c -0.47694,2.003708 -2.29032,3.643288 -4.07123,3.670276 -1.26533,0 -2.262,-0.498332 -2.99,-1.495001 -0.71933,-1.005331 -1.079,-2.387665 -1.079,-4.147 0,-1.759334 0.35967,-3.137334 1.079,-4.133998 0.728,-1.005335 1.72467,-1.508002 2.99,-1.508002 2.15906,0.187192 3.63516,1.750863 4.06081,3.622752 m 0.0212,7.688263 c -1.21335,1.708274 -2.87384,1.961664 -4.667,1.974985 -1.75933,0 -3.19366,-0.701998 -4.303,-2.105998 -1.10066,-1.404 -1.651,-3.249999 -1.651,-5.538002 0,-2.287999 0.55034,-4.133998 1.651,-5.537998 1.10934,-1.404 2.54367,-2.106002 4.303,-2.106002 2.02266,0.0012 3.64086,0.657066 4.667,2.009457 m -3.21358,0.680563 c 0,0 -0.36563,-3.095624 -0.36563,-3.095624 m 0.8775,12.796873 c 0,0 -0.14625,3.461253 -0.14625,3.461253" style="font-style:normal;font-variant:normal;font-weight:normal;font-stretch:normal;font-size:106.66666412px;line-height:100%;font-family:sans-serif;-inkscape-font-specification:sans-serif;font-variant-ligatures:normal;font-variant-position:normal;font-variant-caps:normal;font-variant-numeric:normal;font-variant-alternates:normal;font-feature-settings:normal;text-indent:0;text-align:start;text-decoration:none;text-decoration-line:none;text-decoration-style:solid;text-decoration-color:#000000;letter-spacing:50px;word-spacing:0px;text-transform:none;writing-mode:lr-tb;direction:ltr;text-orientation:mixed;dominant-baseline:auto;baseline-shift:baseline;text-anchor:start;white-space:normal;shape-padding:0;fill:none;fill-opacity:1;stroke:#000000;stroke-width:0.5;stroke-linecap:butt;stroke-linejoin:miter;stroke-miterlimit:4;stroke-dasharray:none;stroke-dashoffset:0;stroke-opacity:1" id="path20088" inkscape:connector-curvature="0"/>
      <path embroider_zigzag_underlay="False" embroider_contour_underlay="False" embroider_center_walk_underlay_stitch_length_mm="1.5" embroider_center_walk_underlay="True" embroider_pull_compensation_mm="0.2" embroider_satin_column="True" embroider_zigzag_spacing_mm="0.4" d="m 233.19492,81.182098 c 0,0 0,20.098002 0,20.098002 m 2.39201,-20.098002 c 0,0 0,20.098002 0,20.098002" style="font-style:normal;font-variant:normal;font-weight:normal;font-stretch:normal;font-size:106.66666412px;line-height:100%;font-family:sans-serif;-inkscape-font-specification:sans-serif;font-variant-ligatures:normal;font-variant-position:normal;font-variant-caps:normal;font-variant-numeric:normal;font-variant-alternates:normal;font-feature-settings:normal;text-indent:0;text-align:start;text-decoration:none;text-decoration-line:none;text-decoration-style:solid;text-decoration-color:#000000;letter-spacing:50px;word-spacing:0px;text-transform:none;writing-mode:lr-tb;direction:ltr;text-orientation:mixed;dominant-baseline:auto;baseline-shift:baseline;text-anchor:start;white-space:normal;shape-padding:0;fill:none;fill-opacity:1;stroke:#000000;stroke-width:0.5;stroke-linecap:butt;stroke-linejoin:miter;stroke-miterlimit:4;stroke-dasharray:none;stroke-dashoffset:0;stroke-opacity:1" id="path9395" inkscape:connector-curvature="0"/>
    </g>
    
</svg>
