<?xml version="1.0" encoding="UTF-8" standalone="no"?>
<svg
>
<defs xmlns="http://www.w3.org/2000/svg" xmlns:dc="http://purl.org/dc/elements/1.1/" xmlns:cc="http://creativecommons.org/ns#" xmlns:rdf="http://www.w3.org/1999/02/22-rdf-syntax-ns#" xmlns:svg="http://www.w3.org/2000/svg" xmlns:sodipodi="http://sodipodi.sourceforge.net/DTD/sodipodi-0.dtd" xmlns:inkscape="http://www.inkscape.org/namespaces/inkscape" id="defs8377"/>
  
<g xmlns="http://www.w3.org/2000/svg" xmlns:inkscape="http://www.inkscape.org/namespaces/inkscape" xmlns:dc="http://purl.org/dc/elements/1.1/" xmlns:cc="http://creativecommons.org/ns#" xmlns:rdf="http://www.w3.org/1999/02/22-rdf-syntax-ns#" xmlns:svg="http://www.w3.org/2000/svg" xmlns:sodipodi="http://sodipodi.sourceforge.net/DTD/sodipodi-0.dtd" inkscape:label="_s" id="g24444">
      <path embroider_zigzag_underlay="False" embroider_contour_underlay="False" embroider_center_walk_underlay_stitch_length_mm="1.5" embroider_center_walk_underlay="True" embroider_pull_compensation_mm="0.2" embroider_satin_column="True" embroider_zigzag_spacing_mm="0.4" d="m 27.926972,129.97845 c 0.884001,0.45933 1.755,0.806 2.613,1.03999 0.858,0.22534 1.707334,0.338 2.548,0.338 1.126666,0 1.993333,-0.12172 2.6,-0.50305 0.606666,-0.39 1.289184,-1.07389 1.289184,-1.77589 0,-0.65 -0.393357,-1.18391 -0.835356,-1.53058 -0.433333,-0.34667 -1.287587,-0.40456 -2.769587,-0.72523 0,0 -1.142241,-0.16053 -1.142241,-0.16053 -1.482,-0.312 -2.552333,-0.78867 -3.211,-1.43 -0.658667,-0.65 -0.988002,-1.74405 -0.988002,-2.87071 0,-1.36934 0.485335,-2.42667 1.456002,-3.17201 0.970667,-0.74533 2.348666,-1.118 4.134,-1.118 0.884001,0 1.716,0.065 2.496,0.19501 0.78,0.13 1.499332,0.325 2.157999,0.58499 m -10.347999,13.598 c 0.936,0.30334 1.824334,0.52867 2.665,0.67601 0.849334,0.156 1.664,0.23399 2.444,0.23399 1.872,0 3.341001,-0.39433 4.407,-1.18299 1.074666,-0.78867 1.611999,-1.859 1.611999,-3.21101 0,-1.18733 -0.359665,-1.90461 -1.079,-2.56328 -0.710666,-0.66733 -1.915333,-1.183 -3.613999,-1.547 0,0 -0.819,-0.182 -0.819,-0.182 -1.282667,-0.286 -2.205276,-0.44711 -2.629943,-0.75911 -0.631495,-0.5275 -0.8783,-1.27429 -0.8783,-1.82896 0,-0.728 0.501494,-1.30847 1.090828,-1.67248 0.597999,-0.36399 1.59408,-0.33917 2.781414,-0.33917 0.78,0 1.533999,0.0867 2.262,0.26001 0.728001,0.17333 1.430001,0.43333 2.106,0.78" style="font-style:normal;font-variant:normal;font-weight:normal;font-stretch:normal;font-size:106.66666412px;line-height:100%;font-family:sans-serif;-inkscape-font-specification:sans-serif;font-variant-ligatures:normal;font-variant-position:normal;font-variant-caps:normal;font-variant-numeric:normal;font-variant-alternates:normal;font-feature-settings:normal;text-indent:0;text-align:start;text-decoration:none;text-decoration-line:none;text-decoration-style:solid;text-decoration-color:#000000;letter-spacing:50px;word-spacing:0px;text-transform:none;writing-mode:lr-tb;direction:ltr;text-orientation:mixed;dominant-baseline:auto;baseline-shift:baseline;text-anchor:start;white-space:normal;shape-padding:0;fill:none;fill-opacity:1;stroke:#000000;stroke-width:0.5;stroke-linecap:butt;stroke-linejoin:miter;stroke-miterlimit:4;stroke-dasharray:none;stroke-dashoffset:0;stroke-opacity:1" id="path9399" inkscape:connector-curvature="0"/>
    </g>
    
</svg>
