<?xml version="1.0" encoding="UTF-8" standalone="no"?>
<svg
>
<defs xmlns="http://www.w3.org/2000/svg" xmlns:dc="http://purl.org/dc/elements/1.1/" xmlns:cc="http://creativecommons.org/ns#" xmlns:rdf="http://www.w3.org/1999/02/22-rdf-syntax-ns#" xmlns:svg="http://www.w3.org/2000/svg" xmlns:sodipodi="http://sodipodi.sourceforge.net/DTD/sodipodi-0.dtd" xmlns:inkscape="http://www.inkscape.org/namespaces/inkscape" id="defs8377"/>
  
<g xmlns="http://www.w3.org/2000/svg" xmlns:inkscape="http://www.inkscape.org/namespaces/inkscape" xmlns:dc="http://purl.org/dc/elements/1.1/" xmlns:cc="http://creativecommons.org/ns#" xmlns:rdf="http://www.w3.org/1999/02/22-rdf-syntax-ns#" xmlns:svg="http://www.w3.org/2000/svg" xmlns:sodipodi="http://sodipodi.sourceforge.net/DTD/sodipodi-0.dtd" id="g24444" inkscape:label="_s" transform="matrix(0.65,0,0,0.65,-162.34856,-62.788448)">
      <path inkscape:connector-curvature="0" id="path9399" style="font-style:normal;font-variant:normal;font-weight:normal;font-stretch:normal;font-size:106.66666412px;line-height:100%;font-family:sans-serif;-inkscape-font-specification:sans-serif;font-variant-ligatures:normal;font-variant-position:normal;font-variant-caps:normal;font-variant-numeric:normal;font-variant-alternates:normal;font-feature-settings:normal;text-indent:0;text-align:start;text-decoration:none;text-decoration-line:none;text-decoration-style:solid;text-decoration-color:#000000;letter-spacing:50px;word-spacing:0px;text-transform:none;writing-mode:lr-tb;direction:ltr;text-orientation:mixed;dominant-baseline:auto;baseline-shift:baseline;text-anchor:start;white-space:normal;shape-padding:0;fill:none;fill-opacity:1;stroke:#000000;stroke-width:0.99999994px;stroke-linecap:butt;stroke-linejoin:miter;stroke-miterlimit:4;stroke-dasharray:none;stroke-dashoffset:0;stroke-opacity:1" d="m 302.19791,583.72687 c 3.54167,1.84028 7.03125,3.22917 10.46875,4.16667 3.4375,0.90278 6.84028,1.35417 10.20833,1.35417 4.51389,0 7.98611,-0.48768 10.41667,-2.01546 2.43055,-1.5625 5.165,-4.30242 5.165,-7.11492 0,-2.60417 -1.57595,-4.74326 -3.34678,-6.13215 -1.73611,-1.38889 -5.1586,-1.62085 -11.0961,-2.90557 l -4.57629,-0.64314 c -5.9375,-1.25 -10.22569,-3.15972 -12.86458,-5.72917 -2.63889,-2.60417 -3.95834,-6.98737 -3.95834,-11.50126 0,-5.48611 1.94445,-9.72222 5.83334,-12.70833 3.88889,-2.98611 9.40972,-4.47917 16.5625,-4.47917 3.54167,0 6.875,0.26042 10,0.78125 3.125,0.52083 6.00694,1.30208 8.64583,2.34375 m -41.45833,54.47917 c 3.75,1.21527 7.30903,2.11805 10.67708,2.70833 3.40278,0.625 6.66667,0.9375 9.79167,0.9375 7.5,0 13.38542,-1.57986 17.65625,-4.73958 4.30555,-3.15973 6.45833,-7.44792 6.45833,-12.86459 0,-4.75694 -1.44097,-7.63068 -4.32292,-10.26957 -2.84722,-2.67361 -7.67361,-4.73958 -14.47916,-6.19791 l -3.28125,-0.72917 c -5.13889,-1.14583 -8.83524,-1.79132 -10.53663,-3.04132 -2.53003,-2.11336 -3.51883,-5.10533 -3.51883,-7.32756 0,-2.91667 2.00919,-5.24228 4.3703,-6.70061 2.39583,-1.45833 6.38654,-1.35886 11.14349,-1.35886 3.125,0 6.14583,0.34722 9.0625,1.04167 2.91667,0.69445 5.72917,1.73611 8.4375,3.125" sodipodi:nodetypes="ccscsccccscsscccscsccccscssc" embroider_zigzag_spacing_mm="0.4" embroider_satin_column="True" embroider_pull_compensation_mm="0.2" embroider_center_walk_underlay="True" embroider_center_walk_underlay_stitch_length_mm="1.5" embroider_contour_underlay="False" embroider_zigzag_underlay="False"/>
    </g>
    
</svg>
