<?xml version="1.0" encoding="UTF-8" standalone="no"?>
<svg
>
<defs xmlns="http://www.w3.org/2000/svg" xmlns:dc="http://purl.org/dc/elements/1.1/" xmlns:cc="http://creativecommons.org/ns#" xmlns:rdf="http://www.w3.org/1999/02/22-rdf-syntax-ns#" xmlns:svg="http://www.w3.org/2000/svg" xmlns:sodipodi="http://sodipodi.sourceforge.net/DTD/sodipodi-0.dtd" xmlns:inkscape="http://www.inkscape.org/namespaces/inkscape" id="defs8377"/>
  
<g xmlns="http://www.w3.org/2000/svg" xmlns:inkscape="http://www.inkscape.org/namespaces/inkscape" xmlns:dc="http://purl.org/dc/elements/1.1/" xmlns:cc="http://creativecommons.org/ns#" xmlns:rdf="http://www.w3.org/1999/02/22-rdf-syntax-ns#" xmlns:svg="http://www.w3.org/2000/svg" xmlns:sodipodi="http://sodipodi.sourceforge.net/DTD/sodipodi-0.dtd" transform="translate(-78,-140)" id="g7469" inkscape:label="C" style="fill:none;stroke:#000000;stroke-width:1;stroke-miterlimit:4;stroke-dasharray:none;stroke-opacity:1">
      <path embroider_running_stitch_length_mm="1.50" inkscape:connector-curvature="0" id="path11711" d="m 288.48214,546.29084 c -0.37878,-9.27483 3.81121,-20.64977 13.94058,-22.69886 7.26473,-1.81802 16.06094,-1.27893 21.95329,3.76979" style="opacity:1;vector-effect:none;fill:none;fill-opacity:1;fill-rule:evenodd;stroke:#000000;stroke-width:0.64999998;stroke-linecap:butt;stroke-linejoin:miter;stroke-miterlimit:4;stroke-dasharray:0.65, 1.3;stroke-dashoffset:0;stroke-opacity:1"/>
      <path sodipodi:nodetypes="ccsccccscc" embroider_zigzag_underlay="False" embroider_contour_underlay="False" embroider_center_walk_underlay="False" embroider_pull_compensation_mm="0.2" embroider_satin_column="True" embroider_zigzag_spacing_mm="0.4" inkscape:connector-curvature="0" d="m 325.48566,524.3727 c -2.34722,-1.60243 -4.86371,-2.79861 -7.54948,-3.58854 -2.66319,-0.8125 -5.50694,-1.21875 -8.53125,-1.21875 -7.65104,0 -13.67708,2.34722 -18.07812,7.04166 -4.40104,4.67187 -6.60156,11.07031 -6.60156,19.19531 m 40.76041,-14.21875 c -2.30208,-2.1441 -4.76215,-3.74653 -7.3802,-4.80729 -2.59549,-1.06076 -5.36025,-1.59114 -8.29428,-1.59114 -5.77777,0 -10.20138,1.7717 -13.27083,5.3151 -3.06945,3.52083 -4.60417,8.62153 -4.60417,15.30208" style="font-style:normal;font-variant:normal;font-weight:normal;font-stretch:normal;font-size:106.66666412px;line-height:100%;font-family:sans-serif;-inkscape-font-specification:sans-serif;font-variant-ligatures:normal;font-variant-position:normal;font-variant-caps:normal;font-variant-numeric:normal;font-variant-alternates:normal;font-feature-settings:normal;text-indent:0;text-align:start;text-decoration:none;text-decoration-line:none;text-decoration-style:solid;text-decoration-color:#000000;letter-spacing:50px;word-spacing:0px;text-transform:none;writing-mode:lr-tb;direction:ltr;text-orientation:mixed;dominant-baseline:auto;baseline-shift:baseline;text-anchor:start;white-space:normal;shape-padding:0;fill:none;fill-opacity:1;stroke:#000000;stroke-width:0.64999998;stroke-linecap:butt;stroke-linejoin:miter;stroke-miterlimit:4;stroke-dasharray:none;stroke-dashoffset:0;stroke-opacity:1" id="path7387"/>
      <path sodipodi:nodetypes="ccsccccscc" inkscape:connector-curvature="0" d="m 284.72525,545.80238 c 0,8.10243 2.20052,14.50087 6.60156,19.19532 4.40104,4.67187 10.42708,7.00781 18.07812,7.00781 2.97917,0 5.80035,-0.40625 8.46354,-1.21875 2.68577,-0.8125 5.22483,-2.03125 7.61719,-3.65625 m -33.54948,-21.32813 c 0,6.65799 1.53472,11.75868 4.60417,15.30208 3.06945,3.52083 7.49306,5.28125 13.27083,5.28125 2.93403,0 5.69879,-0.53038 8.29428,-1.59114 2.61805,-1.06077 5.07812,-2.6632 7.3802,-4.8073" style="font-style:normal;font-variant:normal;font-weight:normal;font-stretch:normal;font-size:106.66666412px;line-height:100%;font-family:sans-serif;-inkscape-font-specification:sans-serif;font-variant-ligatures:normal;font-variant-position:normal;font-variant-caps:normal;font-variant-numeric:normal;font-variant-alternates:normal;font-feature-settings:normal;text-indent:0;text-align:start;text-decoration:none;text-decoration-line:none;text-decoration-style:solid;text-decoration-color:#000000;letter-spacing:50px;word-spacing:0px;text-transform:none;writing-mode:lr-tb;direction:ltr;text-orientation:mixed;dominant-baseline:auto;baseline-shift:baseline;text-anchor:start;white-space:normal;shape-padding:0;fill:none;fill-opacity:1;stroke:#000000;stroke-width:0.64999998;stroke-linecap:butt;stroke-linejoin:miter;stroke-miterlimit:4;stroke-dasharray:none;stroke-dashoffset:0;stroke-opacity:1" id="path11705" embroider_zigzag_spacing_mm="0.4" embroider_satin_column="True" embroider_pull_compensation_mm="0.2" embroider_center_walk_underlay="True" embroider_center_walk_underlay_stitch_length_mm="1.5" embroider_contour_underlay="False" embroider_zigzag_underlay="False"/>
    </g>
    
</svg>
