<?xml version="1.0" encoding="UTF-8" standalone="no"?>
<svg
>
<defs xmlns="http://www.w3.org/2000/svg" xmlns:dc="http://purl.org/dc/elements/1.1/" xmlns:cc="http://creativecommons.org/ns#" xmlns:rdf="http://www.w3.org/1999/02/22-rdf-syntax-ns#" xmlns:svg="http://www.w3.org/2000/svg" xmlns:sodipodi="http://sodipodi.sourceforge.net/DTD/sodipodi-0.dtd" xmlns:inkscape="http://www.inkscape.org/namespaces/inkscape" id="defs8377"/>
  
<g xmlns="http://www.w3.org/2000/svg" xmlns:inkscape="http://www.inkscape.org/namespaces/inkscape" xmlns:dc="http://purl.org/dc/elements/1.1/" xmlns:cc="http://creativecommons.org/ns#" xmlns:rdf="http://www.w3.org/1999/02/22-rdf-syntax-ns#" xmlns:svg="http://www.w3.org/2000/svg" xmlns:sodipodi="http://sodipodi.sourceforge.net/DTD/sodipodi-0.dtd" transform="translate(-78,-140)" id="g7507" inkscape:label="O" style="fill:none;stroke:#000000;stroke-width:1;stroke-miterlimit:4;stroke-dasharray:none;stroke-opacity:1">
      <path embroider_running_stitch_length_mm="1.50" style="opacity:1;vector-effect:none;fill:none;fill-opacity:1;fill-rule:evenodd;stroke:#000000;stroke-width:0.64999998;stroke-linecap:butt;stroke-linejoin:miter;stroke-miterlimit:4;stroke-dasharray:0.65, 1.3;stroke-dashoffset:0;stroke-opacity:1" d="m 509.24315,658.90785 c -2.12936,-7.62855 1.91014,-15.98775 8.37915,-20.18936 5.24895,-3.61942 12.46184,-4.41154 18.20064,-1.47468 8.42454,3.61239 12.94862,13.20314 12.56363,22.0429" id="path27955" inkscape:connector-curvature="0"/>
      <path d="m 544.35284,658.80759 c 0,6.36459 -1.45573,11.39757 -4.36719,15.09896 -2.88888,3.70139 -6.81596,5.55208 -11.78125,5.55208 -4.96527,0 -8.91492,-1.85069 -11.84895,-5.55208 -2.91146,-3.70139 -4.36719,-8.73437 -4.36719,-15.09896 0,-6.38715 1.45573,-11.43142 4.36719,-15.13281 2.93403,-3.70139 6.88368,-5.55208 11.84895,-5.55208 4.96529,0 8.89237,1.85069 11.78125,5.55208 2.91146,3.70139 4.36719,8.74566 4.36719,15.13281 m 7.21094,0 c 0,7.96702 -2.12153,14.3316 -6.36459,19.09375 -4.24305,4.73959 -9.90798,7.10938 -16.99479,7.10938 -7.10937,0 -12.79687,-2.36979 -17.0625,-7.10938 -4.24305,-4.73958 -6.36457,-11.10416 -6.36457,-19.09375 0,-7.98958 2.12152,-14.35416 6.36457,-19.09375 4.26563,-4.76215 9.95313,-7.14322 17.0625,-7.14322 7.08681,0 12.75174,2.38107 16.99479,7.14322 4.24306,4.73959 6.36459,11.10417 6.36459,19.09375" style="font-style:normal;font-variant:normal;font-weight:normal;font-stretch:normal;font-size:106.66666412px;line-height:100%;font-family:sans-serif;-inkscape-font-specification:sans-serif;font-variant-ligatures:normal;font-variant-position:normal;font-variant-caps:normal;font-variant-numeric:normal;font-variant-alternates:normal;font-feature-settings:normal;text-indent:0;text-align:start;text-decoration:none;text-decoration-line:none;text-decoration-style:solid;text-decoration-color:#000000;letter-spacing:50px;word-spacing:0px;text-transform:none;writing-mode:lr-tb;direction:ltr;text-orientation:mixed;dominant-baseline:auto;baseline-shift:baseline;text-anchor:start;white-space:normal;shape-padding:0;fill:none;fill-opacity:1;stroke:#000000;stroke-width:0.64999998;stroke-linecap:butt;stroke-linejoin:miter;stroke-miterlimit:4;stroke-dasharray:none;stroke-dashoffset:0;stroke-opacity:1" id="path7411" inkscape:connector-curvature="0" sodipodi:nodetypes="ccscscsccccscscscc" embroider_zigzag_spacing_mm="0.4" embroider_satin_column="True" embroider_pull_compensation_mm="0.2" embroider_center_walk_underlay="True" embroider_center_walk_underlay_stitch_length_mm="1.5" embroider_contour_underlay="False" embroider_zigzag_underlay="False"/>
    </g>
    
</svg>
