<?xml version="1.0" encoding="UTF-8" standalone="no"?>
<svg
>
<defs xmlns="http://www.w3.org/2000/svg" xmlns:dc="http://purl.org/dc/elements/1.1/" xmlns:cc="http://creativecommons.org/ns#" xmlns:rdf="http://www.w3.org/1999/02/22-rdf-syntax-ns#" xmlns:svg="http://www.w3.org/2000/svg" xmlns:sodipodi="http://sodipodi.sourceforge.net/DTD/sodipodi-0.dtd" xmlns:inkscape="http://www.inkscape.org/namespaces/inkscape" id="defs8377"/>
  
<g xmlns="http://www.w3.org/2000/svg" xmlns:inkscape="http://www.inkscape.org/namespaces/inkscape" xmlns:dc="http://purl.org/dc/elements/1.1/" xmlns:cc="http://creativecommons.org/ns#" xmlns:rdf="http://www.w3.org/1999/02/22-rdf-syntax-ns#" xmlns:svg="http://www.w3.org/2000/svg" xmlns:sodipodi="http://sodipodi.sourceforge.net/DTD/sodipodi-0.dtd" style="fill:none;stroke:#000000;stroke-width:1;stroke-miterlimit:4;stroke-dasharray:none;stroke-opacity:1" inkscape:label="O" id="g7507">
      <path id="path27955" d="m 180.43759,207.6516 c -0.81767,-2.92937 0.73349,-6.1393 3.21759,-7.75272 2.0156,-1.38986 4.78535,-1.69403 6.98905,-0.56628 3.23502,1.38716 4.97227,5.07001 4.82443,8.46448" style="opacity:1;vector-effect:none;fill:none;fill-opacity:1;fill-rule:evenodd;stroke:#000000;stroke-width:0.5;stroke-linecap:butt;stroke-linejoin:miter;stroke-miterlimit:4;stroke-dasharray:0.5, 1;stroke-dashoffset:0;stroke-opacity:1" embroider_running_stitch_length_mm="1.50" inkscape:connector-curvature="0"/>
      <path embroider_zigzag_underlay="False" embroider_contour_underlay="False" embroider_center_walk_underlay_stitch_length_mm="1.5" embroider_center_walk_underlay="True" embroider_pull_compensation_mm="0.2" embroider_satin_column="True" embroider_zigzag_spacing_mm="0.4" id="path7411" style="font-style:normal;font-variant:normal;font-weight:normal;font-stretch:normal;font-size:106.66666412px;line-height:100%;font-family:sans-serif;-inkscape-font-specification:sans-serif;font-variant-ligatures:normal;font-variant-position:normal;font-variant-caps:normal;font-variant-numeric:normal;font-variant-alternates:normal;font-feature-settings:normal;text-indent:0;text-align:start;text-decoration:none;text-decoration-line:none;text-decoration-style:solid;text-decoration-color:#000000;letter-spacing:50px;word-spacing:0px;text-transform:none;writing-mode:lr-tb;direction:ltr;text-orientation:mixed;dominant-baseline:auto;baseline-shift:baseline;text-anchor:start;white-space:normal;shape-padding:0;fill:none;fill-opacity:1;stroke:#000000;stroke-width:0.5;stroke-linecap:butt;stroke-linejoin:miter;stroke-miterlimit:4;stroke-dasharray:none;stroke-dashoffset:0;stroke-opacity:1" d="m 193.91971,207.6131 c 0,2.444 -0.559,4.37666 -1.677,5.798 -1.10933,1.42133 -2.61733,2.132 -4.524,2.132 -1.90666,0 -3.42333,-0.71067 -4.55,-2.132 -1.118,-1.42134 -1.677,-3.354 -1.677,-5.798 0,-2.45267 0.559,-4.38967 1.677,-5.811 1.12667,-1.42134 2.64334,-2.132 4.55,-2.132 1.90667,0 3.41467,0.71066 4.524,2.132 1.118,1.42133 1.677,3.35833 1.677,5.811 m 2.769,0 c 0,3.05933 -0.81467,5.50333 -2.444,7.332 -1.62933,1.82 -3.80466,2.73 -6.526,2.73 -2.73,0 -4.914,-0.91 -6.552,-2.73 -1.62933,-1.82 -2.44399,-4.264 -2.44399,-7.332 0,-3.068 0.81466,-5.512 2.44399,-7.332 1.638,-1.82867 3.822,-2.743 6.552,-2.743 2.72134,0 4.89667,0.91433 6.526,2.743 1.62933,1.82 2.444,4.264 2.444,7.332" inkscape:connector-curvature="0"/>
    </g>
    
</svg>
