<?xml version="1.0" encoding="UTF-8" standalone="no"?>
<svg
>
<defs xmlns="http://www.w3.org/2000/svg" xmlns:dc="http://purl.org/dc/elements/1.1/" xmlns:cc="http://creativecommons.org/ns#" xmlns:rdf="http://www.w3.org/1999/02/22-rdf-syntax-ns#" xmlns:svg="http://www.w3.org/2000/svg" xmlns:sodipodi="http://sodipodi.sourceforge.net/DTD/sodipodi-0.dtd" xmlns:inkscape="http://www.inkscape.org/namespaces/inkscape" id="defs8377"/>
  
<g xmlns="http://www.w3.org/2000/svg" xmlns:inkscape="http://www.inkscape.org/namespaces/inkscape" xmlns:dc="http://purl.org/dc/elements/1.1/" xmlns:cc="http://creativecommons.org/ns#" xmlns:rdf="http://www.w3.org/1999/02/22-rdf-syntax-ns#" xmlns:svg="http://www.w3.org/2000/svg" xmlns:sodipodi="http://sodipodi.sourceforge.net/DTD/sodipodi-0.dtd" style="fill:none;stroke:#000000;stroke-width:1;stroke-miterlimit:4;stroke-dasharray:none;stroke-opacity:1" inkscape:label="Q" id="g7513">
      <path style="opacity:1;vector-effect:none;fill:none;fill-opacity:1;fill-rule:evenodd;stroke:#000000;stroke-width:0.5;stroke-linecap:butt;stroke-linejoin:miter;stroke-miterlimit:4;stroke-dasharray:0.5, 1;stroke-dashoffset:0;stroke-opacity:1" d="m 242.01649,207.84555 c -0.003,6.98393 5.76252,10.36314 10.61873,8.19435" id="path30722" embroider_running_stitch_length_mm="1.50" inkscape:connector-curvature="0"/>
      <path id="path30716" style="font-style:normal;font-variant:normal;font-weight:normal;font-stretch:normal;font-size:106.66666412px;line-height:100%;font-family:sans-serif;-inkscape-font-specification:sans-serif;font-variant-ligatures:normal;font-variant-position:normal;font-variant-caps:normal;font-variant-numeric:normal;font-variant-alternates:normal;font-feature-settings:normal;text-indent:0;text-align:start;text-decoration:none;text-decoration-line:none;text-decoration-style:solid;text-decoration-color:#000000;letter-spacing:50px;word-spacing:0px;text-transform:none;writing-mode:lr-tb;direction:ltr;text-orientation:mixed;dominant-baseline:auto;baseline-shift:baseline;text-anchor:start;white-space:normal;shape-padding:0;fill:none;fill-opacity:1;stroke:#000000;stroke-width:0.5;stroke-linecap:butt;stroke-linejoin:miter;stroke-miterlimit:4;stroke-dasharray:none;stroke-dashoffset:0;stroke-opacity:1" d="m 253.71944,216.789 c -1.28002,0.60999 -2.83572,0.85445 -4.01673,0.88612 -2.73,0 -4.914,-0.91 -6.552,-2.73 -1.62933,-1.82867 -2.444,-4.27267 -2.444,-7.332 0,-3.068 0.81467,-5.512 2.444,-7.332 1.638,-1.82867 3.822,-2.743 6.552,-2.743 2.72133,0 4.89667,0.91433 6.526,2.743 1.62933,1.82 2.444,4.264 2.444,7.332 0,2.25333 -0.45501,4.18166 -1.365,5.785 -0.42739,0.76024 -0.94635,1.42599 -1.5569,1.99722 m -3.65284,-0.31068 c -0.7127,0.30563 -1.51112,0.45844 -2.39526,0.45844 -1.90667,0 -3.42334,-0.71067 -4.55,-2.132 -1.118,-1.42134 -1.677,-3.354 -1.677,-5.798 0,-2.45267 0.559,-4.38967 1.677,-5.811 1.12666,-1.42134 2.64333,-2.132 4.55,-2.132 1.90667,0 3.41466,0.71066 4.524,2.132 1.11799,1.42133 1.677,3.35833 1.677,5.811 0,2.444 -0.55901,4.37666 -1.677,5.798 -0.0633,0.0811 -0.12784,0.15981 -0.1937,0.23626" embroider_zigzag_spacing_mm="0.4" embroider_satin_column="True" embroider_pull_compensation_mm="0.2" embroider_center_walk_underlay="True" embroider_center_walk_underlay_stitch_length_mm="1.5" embroider_contour_underlay="False" embroider_zigzag_underlay="False" inkscape:connector-curvature="0"/>
      <path id="path30718" style="font-style:normal;font-variant:normal;font-weight:normal;font-stretch:normal;font-size:106.66666412px;line-height:100%;font-family:sans-serif;-inkscape-font-specification:sans-serif;font-variant-ligatures:normal;font-variant-position:normal;font-variant-caps:normal;font-variant-numeric:normal;font-variant-alternates:normal;font-feature-settings:normal;text-indent:0;text-align:start;text-decoration:none;text-decoration-line:none;text-decoration-style:solid;text-decoration-color:#000000;letter-spacing:50px;word-spacing:0px;text-transform:none;writing-mode:lr-tb;direction:ltr;text-orientation:mixed;dominant-baseline:auto;baseline-shift:baseline;text-anchor:start;white-space:normal;shape-padding:0;fill:none;fill-opacity:1;stroke:#000000;stroke-width:0.5;stroke-linecap:butt;stroke-linejoin:miter;stroke-miterlimit:4;stroke-dasharray:none;stroke-dashoffset:0;stroke-opacity:1" d="m 250.1969,212.91256 c 0,0 5.77481,6.28154 5.77481,6.28154 m -3.78727,-7.61334 c 0,0 5.65582,6.18738 5.65582,6.18738" embroider_zigzag_spacing_mm="0.4" embroider_satin_column="True" embroider_pull_compensation_mm="0.2" embroider_center_walk_underlay="True" embroider_center_walk_underlay_stitch_length_mm="1.5" embroider_contour_underlay="False" embroider_zigzag_underlay="False" inkscape:connector-curvature="0"/>
    </g>
    
</svg>
