<?xml version="1.0" encoding="UTF-8" standalone="no"?>
<svg
>
<defs xmlns="http://www.w3.org/2000/svg" xmlns:dc="http://purl.org/dc/elements/1.1/" xmlns:cc="http://creativecommons.org/ns#" xmlns:rdf="http://www.w3.org/1999/02/22-rdf-syntax-ns#" xmlns:svg="http://www.w3.org/2000/svg" xmlns:sodipodi="http://sodipodi.sourceforge.net/DTD/sodipodi-0.dtd" xmlns:inkscape="http://www.inkscape.org/namespaces/inkscape" id="defs8377"/>
  
<g xmlns="http://www.w3.org/2000/svg" xmlns:inkscape="http://www.inkscape.org/namespaces/inkscape" xmlns:dc="http://purl.org/dc/elements/1.1/" xmlns:cc="http://creativecommons.org/ns#" xmlns:rdf="http://www.w3.org/1999/02/22-rdf-syntax-ns#" xmlns:svg="http://www.w3.org/2000/svg" xmlns:sodipodi="http://sodipodi.sourceforge.net/DTD/sodipodi-0.dtd" transform="translate(-78,-140)" id="g7513" inkscape:label="Q" style="fill:none;stroke:#000000;stroke-width:1;stroke-miterlimit:4;stroke-dasharray:none;stroke-opacity:1">
      <path embroider_running_stitch_length_mm="1.50" sodipodi:nodetypes="cc" inkscape:connector-curvature="0" id="path30722" d="m 669.60487,659.41293 c -0.008,18.18732 15.00657,26.98736 27.65293,21.33945" style="opacity:1;vector-effect:none;fill:none;fill-opacity:1;fill-rule:evenodd;stroke:#000000;stroke-width:0.64999998;stroke-linecap:butt;stroke-linejoin:miter;stroke-miterlimit:4;stroke-dasharray:0.65, 1.3;stroke-dashoffset:0;stroke-opacity:1"/>
      <path embroider_zigzag_underlay="False" embroider_contour_underlay="False" embroider_center_walk_underlay_stitch_length_mm="1.5" embroider_center_walk_underlay="True" embroider_pull_compensation_mm="0.2" embroider_satin_column="True" embroider_zigzag_spacing_mm="0.4" inkscape:connector-curvature="0" d="m 700.08129,682.70318 c -3.33337,1.58851 -7.38469,2.22512 -10.46023,2.30759 -7.10937,0 -12.79687,-2.36979 -17.0625,-7.10937 -4.24305,-4.76215 -6.36458,-11.12674 -6.36458,-19.09375 0,-7.98959 2.12153,-14.35417 6.36458,-19.09375 4.26563,-4.76215 9.95313,-7.14323 17.0625,-7.14323 7.08681,0 12.75174,2.38108 16.99479,7.14323 4.24305,4.73958 6.36458,11.10416 6.36458,19.09375 0,5.86805 -1.1849,10.88975 -3.55469,15.0651 -1.11297,1.97981 -2.46444,3.71352 -4.05441,5.20111 m -9.51262,-0.80908 c -1.85598,0.79591 -3.93519,1.19385 -6.23765,1.19385 -4.96528,0 -8.91493,-1.85069 -11.84896,-5.55208 -2.91146,-3.70139 -4.36719,-8.73437 -4.36719,-15.09896 0,-6.38715 1.45573,-11.43142 4.36719,-15.13281 2.93403,-3.70139 6.88368,-5.55208 11.84896,-5.55208 4.96528,0 8.89236,1.85069 11.78125,5.55208 2.91145,3.70139 4.36718,8.74566 4.36718,15.13281 0,6.36459 -1.45573,11.39757 -4.36718,15.09896 -0.16477,0.21111 -0.33291,0.41619 -0.50443,0.61526" style="font-style:normal;font-variant:normal;font-weight:normal;font-stretch:normal;font-size:106.66666412px;line-height:100%;font-family:sans-serif;-inkscape-font-specification:sans-serif;font-variant-ligatures:normal;font-variant-position:normal;font-variant-caps:normal;font-variant-numeric:normal;font-variant-alternates:normal;font-feature-settings:normal;text-indent:0;text-align:start;text-decoration:none;text-decoration-line:none;text-decoration-style:solid;text-decoration-color:#000000;letter-spacing:50px;word-spacing:0px;text-transform:none;writing-mode:lr-tb;direction:ltr;text-orientation:mixed;dominant-baseline:auto;baseline-shift:baseline;text-anchor:start;white-space:normal;shape-padding:0;fill:none;fill-opacity:1;stroke:#000000;stroke-width:0.64999998;stroke-linecap:butt;stroke-linejoin:miter;stroke-miterlimit:4;stroke-dasharray:none;stroke-dashoffset:0;stroke-opacity:1" id="path30716" sodipodi:nodetypes="cccscscscccscscscscc"/>
      <path embroider_zigzag_underlay="False" embroider_contour_underlay="False" embroider_center_walk_underlay_stitch_length_mm="1.5" embroider_center_walk_underlay="True" embroider_pull_compensation_mm="0.2" embroider_satin_column="True" embroider_zigzag_spacing_mm="0.4" inkscape:connector-curvature="0" d="m 690.90803,672.60829 15.03855,16.35816 m -9.86267,-19.82641 14.72868,16.11298" style="font-style:normal;font-variant:normal;font-weight:normal;font-stretch:normal;font-size:106.66666412px;line-height:100%;font-family:sans-serif;-inkscape-font-specification:sans-serif;font-variant-ligatures:normal;font-variant-position:normal;font-variant-caps:normal;font-variant-numeric:normal;font-variant-alternates:normal;font-feature-settings:normal;text-indent:0;text-align:start;text-decoration:none;text-decoration-line:none;text-decoration-style:solid;text-decoration-color:#000000;letter-spacing:50px;word-spacing:0px;text-transform:none;writing-mode:lr-tb;direction:ltr;text-orientation:mixed;dominant-baseline:auto;baseline-shift:baseline;text-anchor:start;white-space:normal;shape-padding:0;fill:none;fill-opacity:1;stroke:#000000;stroke-width:0.64999998;stroke-linecap:butt;stroke-linejoin:miter;stroke-miterlimit:4;stroke-dasharray:none;stroke-dashoffset:0;stroke-opacity:1" id="path30718"/>
    </g>
    
</svg>
