<?xml version="1.0" encoding="UTF-8" standalone="no"?>
<svg
>
<defs xmlns="http://www.w3.org/2000/svg" xmlns:dc="http://purl.org/dc/elements/1.1/" xmlns:cc="http://creativecommons.org/ns#" xmlns:rdf="http://www.w3.org/1999/02/22-rdf-syntax-ns#" xmlns:svg="http://www.w3.org/2000/svg" xmlns:sodipodi="http://sodipodi.sourceforge.net/DTD/sodipodi-0.dtd" xmlns:inkscape="http://www.inkscape.org/namespaces/inkscape" id="defs8377"/>
  
<g xmlns="http://www.w3.org/2000/svg" xmlns:inkscape="http://www.inkscape.org/namespaces/inkscape" xmlns:dc="http://purl.org/dc/elements/1.1/" xmlns:cc="http://creativecommons.org/ns#" xmlns:rdf="http://www.w3.org/1999/02/22-rdf-syntax-ns#" xmlns:svg="http://www.w3.org/2000/svg" xmlns:sodipodi="http://sodipodi.sourceforge.net/DTD/sodipodi-0.dtd" transform="translate(-78,-140)" id="g7519" inkscape:label="S" style="fill:none;stroke:#000000;stroke-width:1;stroke-miterlimit:4;stroke-dasharray:none;stroke-opacity:1">
      <path embroider_zigzag_underlay="False" embroider_contour_underlay="False" embroider_center_walk_underlay_stitch_length_mm="1.5" embroider_center_walk_underlay="True" embroider_pull_compensation_mm="0.2" embroider_satin_column="True" embroider_zigzag_spacing_mm="0.4" sodipodi:nodetypes="ccssscccsscsccccscsccccscscc" d="m 126.89713,787.25304 c 2.77604,1.55729 5.49566,2.7309 8.15885,3.52083 2.66319,0.78993 5.28125,1.18489 7.85417,1.18489 3.90451,0 7.98896,-0.26228 10.11049,-1.797 2.12153,-1.53472 3.18229,-3.72396 3.18229,-6.56771 0,-2.48264 -0.76736,-4.42361 -2.30208,-5.82291 -1.51215,-1.39931 -5.07751,-2.44879 -8.5532,-3.14844 l -4.16406,-0.8125 c -5.1007,-1.01563 -8.79081,-2.60677 -11.07032,-4.77344 -2.27951,-2.16667 -3.41927,-5.17969 -3.41927,-9.03906 0,-4.46875 1.56858,-7.98958 4.70573,-10.5625 3.15972,-2.57291 7.50434,-4.36445 13.03386,-4.36445 2.36979,0 4.78472,0.21441 7.24479,0.64322 2.46007,0.42883 4.97656,1.07206 7.54948,1.92969 m -32.33073,47.6612 c 2.88889,1.06077 5.67621,1.86198 8.36198,2.40365 2.70833,0.54167 5.25868,0.8125 7.65104,0.8125 6.34201,0 11.1493,-1.76897 14.42187,-4.29675 3.29514,-2.52778 4.94271,-6.24045 4.94271,-11.13802 0,-4.10764 -1.21875,-7.38021 -3.65625,-9.81771 -2.41493,-2.46007 -6.17275,-4.17534 -11.27344,-5.14583 l -4.1302,-0.84636 c -3.74653,-0.69965 -7.36831,-1.61371 -8.72248,-2.74218 -1.33159,-1.15105 -1.99739,-2.84376 -1.99739,-5.07813 0,-2.66319 1.00434,-4.71701 3.01302,-6.16145 2.03125,-1.44445 5.98028,-1.66159 9.70424,-1.66159 2.1441,0 4.36719,0.30469 6.66927,0.91406 2.30209,0.60938 4.75087,1.53473 7.34636,2.77604" style="font-style:normal;font-variant:normal;font-weight:normal;font-stretch:normal;font-size:106.66666412px;line-height:100%;font-family:sans-serif;-inkscape-font-specification:sans-serif;font-variant-ligatures:normal;font-variant-position:normal;font-variant-caps:normal;font-variant-numeric:normal;font-variant-alternates:normal;font-feature-settings:normal;text-indent:0;text-align:start;text-decoration:none;text-decoration-line:none;text-decoration-style:solid;text-decoration-color:#000000;letter-spacing:50px;word-spacing:0px;text-transform:none;writing-mode:lr-tb;direction:ltr;text-orientation:mixed;dominant-baseline:auto;baseline-shift:baseline;text-anchor:start;white-space:normal;shape-padding:0;fill:none;fill-opacity:1;stroke:#000000;stroke-width:0.64999998;stroke-linecap:butt;stroke-linejoin:miter;stroke-miterlimit:4;stroke-dasharray:none;stroke-dashoffset:0;stroke-opacity:1" id="path7419" inkscape:connector-curvature="0"/>
    </g>
    
</svg>
