<?xml version="1.0" encoding="UTF-8" standalone="no"?>
<svg
>
<defs xmlns="http://www.w3.org/2000/svg" xmlns:dc="http://purl.org/dc/elements/1.1/" xmlns:cc="http://creativecommons.org/ns#" xmlns:rdf="http://www.w3.org/1999/02/22-rdf-syntax-ns#" xmlns:svg="http://www.w3.org/2000/svg" xmlns:sodipodi="http://sodipodi.sourceforge.net/DTD/sodipodi-0.dtd" xmlns:inkscape="http://www.inkscape.org/namespaces/inkscape" id="defs8377"/>
  
<g xmlns="http://www.w3.org/2000/svg" xmlns:inkscape="http://www.inkscape.org/namespaces/inkscape" xmlns:dc="http://purl.org/dc/elements/1.1/" xmlns:cc="http://creativecommons.org/ns#" xmlns:rdf="http://www.w3.org/1999/02/22-rdf-syntax-ns#" xmlns:svg="http://www.w3.org/2000/svg" xmlns:sodipodi="http://sodipodi.sourceforge.net/DTD/sodipodi-0.dtd" style="fill:none;stroke:#000000;stroke-width:1;stroke-miterlimit:4;stroke-dasharray:none;stroke-opacity:1" inkscape:label="S" id="g7519">
      <path id="path7419" style="font-style:normal;font-variant:normal;font-weight:normal;font-stretch:normal;font-size:106.66666412px;line-height:100%;font-family:sans-serif;-inkscape-font-specification:sans-serif;font-variant-ligatures:normal;font-variant-position:normal;font-variant-caps:normal;font-variant-numeric:normal;font-variant-alternates:normal;font-feature-settings:normal;text-indent:0;text-align:start;text-decoration:none;text-decoration-line:none;text-decoration-style:solid;text-decoration-color:#000000;letter-spacing:50px;word-spacing:0px;text-transform:none;writing-mode:lr-tb;direction:ltr;text-orientation:mixed;dominant-baseline:auto;baseline-shift:baseline;text-anchor:start;white-space:normal;shape-padding:0;fill:none;fill-opacity:1;stroke:#000000;stroke-width:0.5;stroke-linecap:butt;stroke-linejoin:miter;stroke-miterlimit:4;stroke-dasharray:none;stroke-dashoffset:0;stroke-opacity:1" d="m 33.616719,256.93615 c 1.065999,0.598 2.110333,1.04866 3.132998,1.352 1.022665,0.30333 2.028,0.455 3.016002,0.455 1.499331,0 3.06776,-0.10072 3.882428,-0.69005 0.814667,-0.58934 1.221999,-1.43 1.221999,-2.522 0,-0.95334 -0.294666,-1.69867 -0.883999,-2.236 -0.580665,-0.53734 -1.949763,-0.94034 -3.284428,-1.209 0,0 -1.598999,-0.312 -1.598999,-0.312 -1.958669,-0.39 -3.375671,-1.001 -4.251003,-1.833 -0.875332,-0.832 -1.313,-1.989 -1.313,-3.471 0,-1.716 0.602335,-3.068 1.807,-4.056 1.213333,-0.988 2.881667,-1.67595 5.005003,-1.67595 0.909999,0 1.837332,0.0823 2.781999,0.247 0.944667,0.16467 1.910999,0.41167 2.899,0.741 m -12.415,18.3019 c 1.109334,0.40733 2.179665,0.715 3.211,0.923 1.039999,0.208 2.019333,0.312 2.938,0.312 2.435331,0 4.281331,-0.67929 5.537998,-1.64995 1.265333,-0.97067 1.898,-2.39634 1.898,-4.277 0,-1.57734 -0.468,-2.834 -1.404,-3.77 -0.927333,-0.94467 -2.370336,-1.60333 -4.329001,-1.976 0,0 -1.585996,-0.325 -1.585996,-0.325 -1.438668,-0.26867 -2.829431,-0.61967 -3.349433,-1.053 -0.51133,-0.442 -0.766998,-1.09201 -0.766998,-1.95 0,-1.02267 0.385667,-1.81133 1.157,-2.366 0.78,-0.55467 2.296428,-0.63805 3.726428,-0.63805 0.823335,0 1.677001,0.117 2.561,0.351 0.884003,0.234 1.824334,0.58933 2.821002,1.066" embroider_zigzag_spacing_mm="0.4" embroider_satin_column="True" embroider_pull_compensation_mm="0.2" embroider_center_walk_underlay="True" embroider_center_walk_underlay_stitch_length_mm="1.5" embroider_contour_underlay="False" embroider_zigzag_underlay="False" inkscape:connector-curvature="0"/>
    </g>
    
</svg>
