<?xml version="1.0" encoding="UTF-8" standalone="no"?>
<svg
>
<defs xmlns="http://www.w3.org/2000/svg" xmlns:dc="http://purl.org/dc/elements/1.1/" xmlns:cc="http://creativecommons.org/ns#" xmlns:rdf="http://www.w3.org/1999/02/22-rdf-syntax-ns#" xmlns:svg="http://www.w3.org/2000/svg" xmlns:sodipodi="http://sodipodi.sourceforge.net/DTD/sodipodi-0.dtd" xmlns:inkscape="http://www.inkscape.org/namespaces/inkscape" id="defs8377"/>
  
<g xmlns="http://www.w3.org/2000/svg" xmlns:inkscape="http://www.inkscape.org/namespaces/inkscape" xmlns:dc="http://purl.org/dc/elements/1.1/" xmlns:cc="http://creativecommons.org/ns#" xmlns:rdf="http://www.w3.org/1999/02/22-rdf-syntax-ns#" xmlns:svg="http://www.w3.org/2000/svg" xmlns:sodipodi="http://sodipodi.sourceforge.net/DTD/sodipodi-0.dtd" style="fill:none;stroke:#000000;stroke-width:1;stroke-miterlimit:4;stroke-dasharray:none;stroke-opacity:1" inkscape:label="U" id="g7525">
      <path embroider_zigzag_underlay="False" embroider_contour_underlay="False" embroider_center_walk_underlay_stitch_length_mm="1.5" embroider_center_walk_underlay="True" embroider_pull_compensation_mm="0.2" embroider_satin_column="True" embroider_zigzag_spacing_mm="0.4" id="path7423" style="font-style:normal;font-variant:normal;font-weight:normal;font-stretch:normal;font-size:106.66666412px;line-height:100%;font-family:sans-serif;-inkscape-font-specification:sans-serif;font-variant-ligatures:normal;font-variant-position:normal;font-variant-caps:normal;font-variant-numeric:normal;font-variant-alternates:normal;font-feature-settings:normal;text-indent:0;text-align:start;text-decoration:none;text-decoration-line:none;text-decoration-style:solid;text-decoration-color:#000000;letter-spacing:50px;word-spacing:0px;text-transform:none;writing-mode:lr-tb;direction:ltr;text-orientation:mixed;dominant-baseline:auto;baseline-shift:baseline;text-anchor:start;white-space:normal;shape-padding:0;fill:none;fill-opacity:1;stroke:#000000;stroke-width:0.5;stroke-linecap:butt;stroke-linejoin:miter;stroke-miterlimit:4;stroke-dasharray:none;stroke-dashoffset:0;stroke-opacity:1" d="m 92.233716,241.2831 c 0,0 0,12.116 0,12.116 0,2.53067 0.624,4.44166 1.872,5.733 1.256667,1.29133 3.111333,1.937 5.563999,1.937 2.444005,0 4.290005,-0.64567 5.538005,-1.937 1.25666,-1.29134 1.885,-3.20233 1.885,-5.733 0,0 0,-12.116 0,-12.116 m -12.220002,0 c 0,0 0,11.791 0,11.791 0,2.08 0.376999,3.57933 1.130999,4.498 0.753999,0.91 1.975998,1.365 3.665998,1.365 1.681335,0 2.899005,-0.455 3.652995,-1.365 0.754,-0.91867 1.131,-2.418 1.131,-4.498 0,0 0,-11.791 0,-11.791" inkscape:connector-curvature="0"/>
    </g>
    
</svg>
